<svg width="1233" height="1283" xmlns="http://www.w3.org/2000/svg" xmlns:xlink="http://www.w3.org/1999/xlink" xml:space="preserve" overflow="hidden"><g transform="translate(-485 -1155)"><g><path d="M1405.68 1640.24 1403.86 1640.24 1397.54 1638.69 1391.37 1641.5 1378.18 1636.58 1380.29 1630.96 1379.73 1625.62 1378.04 1619.72 1377.48 1613.12 1380.15 1606.8 1382.11 1600.76 1380.57 1599.07 1379.02 1597.53 1379.73 1592.05 1365.84 1591.06 1361.77 1588.67 1357.42 1586.85 1355.59 1582.49 1354.19 1577.43 1347.88 1574.34 1343.95 1568.44 1343.11 1560.72 1344.51 1554.82 1347.74 1552.43 1351.39 1551.02 1356.86 1553.27 1361.35 1549.9 1359.52 1544.42 1353.63 1540.77 1347.04 1539.22 1341.99 1542.03 1336.94 1543.3 1329.92 1540.06 1322.49 1538.8 1319.96 1539.78 1317.86 1539.5 1316.31 1537.39 1313.93 1536.41 1308.6 1540.63 1302.84 1542.87 1302.42 1538.66 1302.84 1534.58 1299.62 1532.9 1295.97 1532.06 1293.3 1527.28 1288.11 1526.86 1282.92 1529.39 1279.41 1533.6 1280.68 1539.5 1280.12 1544.98 1278.99 1550.04 1274.08 1549.62 1268.47 1548.35 1263.7 1546.39 1258.79 1543.72 1255 1541.33 1251.22 1539.64 1246.31 1539.08 1241.4 1538.1 1236.34 1534.87 1231.86 1531.35 1227.37 1531.49 1222.74 1532.9 1218.67 1533.6 1215.16 1533.88 1213.76 1530.79 1209.97 1526.86 1210.39 1523.35 1208.43 1521.38 1199.45 1522.36 1193.7 1524.33 1191.87 1525.17 1190.19 1525.03 1187.52 1523.63 1185.42 1521.24 1188.64 1516.18 1194.12 1512.25 1196.36 1507.19 1192.99 1506.2 1182.05 1504.52 1171.53 1500.73 1167.04 1504.1 1163.39 1506.06 1158.76 1505.08 1154.97 1508.03 1148.66 1511.54 1142.35 1513.09 1139.96 1509.72 1139.96 1504.66 1132.81 1496.93 1123.13 1500.3 1119.48 1504.66 1120.6 1516.32 1116.67 1518.99 1115.41 1520.54 1113.87 1521.8 1112.32 1520.96 1110.64 1519.97 1104.89 1519.55 1099.14 1520.96 1100.68 1509.44 1080.48 1512.25 1060.42 1517.73 1070.66 1498.62 1079.22 1477.83 1090.86 1452.68 1092.4 1447.34 1091.28 1441.86 1093.81 1437.5 1097.31 1433.29 1101.1 1431.74 1103.07 1427.39 1100.82 1423.74 1098.01 1421.35 1093.53 1420.78 1088.9 1418.96 1082.44 1418.12 1071.78 1412.21 1067.01 1410.25 1062.24 1407.16 1056.91 1406.31 1051.86 1407.86 1047.65 1404.35 1047.93 1400.41 1049.89 1396.34 1050.74 1391.56 1050.74 1386.79 1045.83 1388.33 1043.44 1385.38 1049.05 1378.92 1048.07 1374.56 1046.53 1370.21 1047.65 1366.98 1047.65 1363.04 1047.23 1359.25 1056.91 1352.08 1060.84 1350.82 1062.94 1347.45 1063.92 1337.75 1059.43 1330.73 1055.79 1330.03 1052.28 1328.34 1049.61 1321.32 1045.4 1321.03 1040.91 1321.32 1036 1317.8 1033.62 1311.34 1032.64 1299.96 1030.81 1294.2 1029.55 1293.22 1028.15 1293.36 1027.03 1294.34 1025.76 1294.62 1022.54 1292.23 1014.68 1295.04 1007.38 1293.36 1004.44 1291.53 1001.35 1288.72 1001.35 1284.23 1002.75 1279.87 1003.88 1278.32 1004.58 1276.64 1003.32 1275.65 1001.77 1275.23 1000.23 1275.51 998.827 1276.64 996.301 1279.87 993.495 1282.82 989.286 1283.52 985.358 1280.85 984.657 1278.46 984.376 1276.08 982.973 1275.23 981.57 1276.78 981.149 1279.31 981.009 1287.32 978.624 1291.11 971.609 1287.88 965.156 1281.98 962.911 1279.73 960.666 1280.01 958.562 1276.92 957.159 1272.99 955.476 1270.88 953.371 1269.19 951.828 1265.4 949.022 1263.57 942.288 1259.22 938.5 1257.39 939.622 1255.99 950.004 1247.42 962.209 1239.83 965.717 1238.28 973.433 1235.19 974.836 1234.63 983.394 1233.65 987.182 1233.23 993.215 1233.93 1005 1232.8 1007.1 1232.66 1016.64 1231.82 1034.74 1237.3 1039.79 1236.88 1040.49 1236.74 1041.05 1236.6 1051.58 1233.37 1073.6 1231.54 1075.85 1231.26 1088.33 1230.14 1089.88 1231.26 1092.26 1234.77 1094.65 1237.16 1097.31 1237.86 1109.8 1235.19 1129.72 1236.32 1142.77 1235.33 1143.47 1235.05 1153.99 1231.26 1155.82 1230.7 1158.2 1229.15 1167.88 1222.69 1178.12 1212.15 1182.47 1205.83 1186.12 1199.09 1188.64 1191.5 1189.49 1182.93 1187.8 1174.5 1187.38 1170.28 1188.64 1167.19 1193.84 1162.98 1204.36 1157.5 1204.5 1157.5 1210.25 1168.74 1219.09 1186.3 1220.91 1194.03 1225.4 1205.69 1242.24 1238.99 1255.28 1273.97 1257.39 1277.76 1264.26 1286.19 1266.93 1293.36 1298.5 1338.74 1310.84 1356.72 1325.57 1373.16 1327.68 1374.84 1337.64 1386.5 1338.06 1391.42 1338.06 1397.32 1339.32 1402.24 1346.05 1406.03 1348.02 1410.11 1353.49 1428.23 1356.02 1432.45 1358.96 1434.27 1361.49 1436.8 1370.19 1453.8 1375.38 1460.4 1377.2 1464.06 1377.76 1467.85 1379.16 1471.5 1388.28 1481.62 1391.23 1489.91 1393.9 1508.03 1397.4 1518.01 1407.22 1531.63 1407.92 1534.44 1406.8 1537.25 1404.98 1539.92 1404 1542.45 1403.86 1544.84 1405.26 1552.29 1406.94 1573.5 1408.63 1583.34 1414.94 1603.43 1415.5 1613.26 1413.54 1622.25 1409.19 1630.54 1405.68 1640.24Z" stroke="#FFFFFF" stroke-width="0.701214" stroke-linecap="round" stroke-linejoin="round" stroke-miterlimit="10" stroke-opacity="1" fill="#FFB600" fill-rule="evenodd" fill-opacity="1"/><path d="M941.713 1259.5 948.448 1263.84 951.254 1265.67 952.797 1269.45 954.902 1271.13 956.585 1273.23 957.988 1277.16 960.093 1280.24 962.338 1279.96 964.582 1282.2 971.036 1288.09 978.051 1291.31 980.437 1287.53 980.577 1279.54 980.998 1277.02 982.401 1275.48 983.804 1276.32 984.084 1278.7 984.786 1281.08 988.714 1283.75 992.924 1283.05 995.73 1280.1 998.255 1276.88 999.658 1275.76 1001.2 1275.48 1002.74 1275.9 1004.01 1276.88 1003.31 1278.56 1002.18 1280.1 1000.78 1284.45 1000.78 1288.93 1003.87 1291.73 1006.81 1293.56 1014.11 1295.24 1021.97 1292.44 1025.19 1294.82 1026.46 1294.54 1027.58 1293.56 1028.98 1293.42 1030.24 1294.4 1032.07 1300.14 1033.05 1311.5 1035.44 1317.94 1040.35 1321.45 1044.84 1321.17 1049.04 1321.45 1051.71 1328.45 1055.22 1330.14 1058.87 1330.84 1063.36 1337.84 1062.37 1347.51 1060.27 1350.88 1056.34 1352.14 1046.66 1359.29 1047.08 1363.07 1047.08 1366.99 1045.96 1370.22 1047.5 1374.56 1048.48 1378.91 1042.87 1385.35 1045.26 1388.3 1050.17 1386.76 1050.17 1391.52 1049.33 1396.29 1047.36 1400.35 1047.08 1404.27 1051.29 1407.78 1056.34 1406.24 1061.67 1407.08 1066.44 1410.16 1071.21 1412.12 1081.88 1418.01 1088.33 1418.85 1092.96 1420.67 1097.45 1421.23 1100.26 1423.62 1102.5 1427.26 1100.54 1431.6 1096.75 1433.15 1093.24 1437.35 1090.71 1441.69 1091.84 1447.16 1090.29 1452.49 1078.65 1477.57 1070.09 1498.32 1059.85 1517.38 1058.44 1519.9 1056.9 1522.28 1055.5 1523.26 1053.96 1524.52 1052.83 1526.35 1051.99 1528.31 1042.87 1545.27 1038.1 1548.63 1036.98 1547.23 1033.33 1546.39 1030.38 1549.47 1028.7 1553.53 1026.46 1556.48 1021.55 1558.58 1018.46 1561.94 1016.78 1568.95 1010.46 1571.05 1002.32 1574.98 993.766 1577.5 984.786 1576.24 977.49 1570.07 969.212 1566.29 953.499 1573.02 946.063 1573.02 937.083 1571.19 939.468 1569.37 942.415 1567.97 944.379 1565.73 945.782 1559.98 945.361 1558.86 943.537 1557.04 943.256 1556.48 944.239 1555.64 945.361 1555.5 946.343 1555.5 948.869 1554.09 950.552 1553.81 951.815 1552.97 952.376 1550.17 941.012 1553.39 939.328 1555.78 939.889 1563.2 938.486 1564.89 933.996 1566.29 927.823 1565.45 920.247 1561.1 913.512 1554.38 910.987 1548.07 922.351 1546.81 922.351 1545.27 921.509 1544.99 919.826 1543.58 921.931 1543.3 923.895 1543.44 925.859 1544 927.402 1545.27 926.701 1540.78 924.035 1536.72 922.211 1532.09 923.474 1525.78 921.369 1524.8 919.686 1527.05 918.704 1530.83 918.423 1534.61 917.441 1538.82 915.617 1539.8 913.933 1537.98 910.285 1538.68 906.638 1539.66 897.798 1537 897.798 1534.33 897.097 1531.95 897.798 1528.73 897.377 1524.66 899.622 1520.6 902.148 1517.1 905.235 1515.55 908.461 1514.29 913.232 1514.29 918.423 1512.89 919.545 1511.35 919.826 1506.86 918.563 1506.02 915.898 1507.43 911.969 1510.93 909.584 1510.37 907.76 1509.25 906.778 1507.43 906.778 1504.48 902.288 1506.86 898.64 1509.39 891.766 1516.82 890.082 1518.22 887.837 1518.92 885.873 1518.92 884.61 1517.66 884.61 1515.55 885.873 1513.31 888.679 1509.39 883.067 1510.65 881.243 1510.09 880.682 1506.86 881.664 1504.48 884.049 1503.08 886.714 1502.24 888.679 1501.12 890.924 1497.89 890.362 1497.19 885.171 1497.89 883.488 1496.77 882.225 1494.25 880.962 1491.03 879.419 1488.08 880.26 1487.8 880.822 1487.38 881.944 1486.26 883.347 1487.38 885.452 1487.24 889.24 1486.26 892.186 1487.1 894.712 1488.65 897.237 1489.49 900.184 1488.08 899.903 1490.75 900.184 1493.27 901.025 1495.37 902.849 1496.21 904.954 1495.37 905.796 1493.13 906.778 1488.08 910.005 1483.32 912.67 1483.6 915.617 1485.42 919.826 1484.86 918.844 1482.9 917.722 1481.36 916.178 1480.38 914.494 1479.96 911.829 1479.96 910.566 1478.13 907.76 1477.71 905.515 1478.41 903.27 1478.27 899.622 1477.57 893.59 1475.61 885.312 1469.44 884.891 1466.64 888.679 1461.32 891.064 1458.79 897.097 1456.97 898.5 1455.99 901.025 1454.03 903.691 1448.84 905.515 1442.96 903.691 1440.01 900.605 1437.91 898.64 1433.29 898.64 1427.68 887.416 1416.89 877.735 1417.17 869.036 1417.45 868.054 1415.35 866.651 1411.84 864.968 1409.04 863.003 1405.68 860.758 1403.57 860.758 1400.35 859.917 1395.45 857.952 1388.02 855.146 1368.26 855.848 1364.89 858.373 1364.47 868.896 1368.26 872.263 1367.56 875.069 1366.15 877.455 1365.73 880.12 1367.42 880.962 1370.22 881.383 1374.7 881.103 1379.19 880.12 1382.27 879.98 1388.02 885.873 1392.92 893.168 1396.01 897.798 1396.29 894.291 1392.5 883.207 1384.65 886.434 1376.1 887.416 1371.06 886.574 1367.42 884.75 1363.63 884.61 1361.67 884.47 1358.87 885.312 1353.96 887.276 1350.18 885.873 1348.36 884.049 1348.64 883.207 1349.2 883.207 1348.64 885.312 1343.17 885.312 1342.75 885.452 1340.93 885.592 1339.39 885.592 1338.54 885.452 1337.14 885.452 1335.04 885.452 1333.64 885.873 1332.52 886.294 1331.4 886.434 1330.56 886.013 1329.01 885.452 1326.35 884.049 1322.43 886.574 1322.15 891.485 1320.33 893.028 1319.06 893.87 1318.78 894.712 1318.36 895.133 1318.22 897.658 1317.94 900.464 1318.22 902.148 1317.94 903.27 1316.82 905.094 1314.02 907.62 1310.93 910.145 1308.41 910.846 1307.71 914.074 1304.77 915.898 1302.53 917.02 1300.84 917.16 1300.56 918.423 1298.04 919.124 1295.1 919.265 1293.42 919.405 1292.86 920.107 1290.61 920.527 1289.63 921.509 1287.81 921.931 1287.11 923.895 1285.29 925.298 1284.45 928.805 1281.78 931.892 1279.12 932.594 1278.56 932.874 1278.42 934.698 1277.44 937.504 1275.9 938.065 1275.62 938.907 1274.64 938.907 1274.08 938.907 1273.8 938.626 1273.23 937.083 1270.99 937.083 1270.01 937.644 1265.53 938.065 1264.27 938.486 1262.72 939.188 1261.88 939.749 1260.9 940.03 1260.76 941.152 1260.34 941.573 1259.64 941.713 1259.5ZM966.406 1417.17 968.23 1410.44 968.09 1404.56 966.126 1399.23 964.863 1391.52 961.496 1385.92 954.761 1385.35 948.728 1386.76 944.94 1390.82 942.274 1396.57 937.925 1402.17 929.367 1403.01 928.244 1406.8 927.963 1410.86 923.895 1413.38 919.405 1414.93 913.372 1411.14 908.04 1410.86 905.094 1416.89 909.584 1422.49 913.372 1427.82 914.354 1434.69 918.142 1437.21 923.755 1438.89 929.367 1446.18 937.504 1446.46 940.871 1445.9 944.239 1443.94 949.009 1442.54 953.779 1441.41 955.884 1446.46 961.496 1443.66 966.968 1442.4 971.878 1439.45 973.702 1436.23 976.929 1431.88 975.386 1430.06 975.386 1425.86 978.192 1423.9 980.858 1422.49 981.419 1418.99 980.016 1415.49 976.087 1415.49 971.597 1417.17 966.406 1417.17ZM881.523 1350.32 881.103 1350.6 881.103 1349.76 881.523 1350.32ZM810.25 1356.76 814.038 1356.62 817.546 1357.18 819.369 1359.15 818.107 1363.49 814.739 1366.43 810.53 1366.71 802.533 1364.89 800.849 1365.59 798.745 1366.71 796.781 1366.85 796.079 1364.19 796.5 1363.35 798.745 1356.76 800.99 1354.52 803.655 1353.82 806.742 1354.52 810.25 1356.76ZM822.035 1382.55 824.42 1384.37 826.244 1386.48 826.525 1388.72 824.561 1391.38 820.772 1391.52 807.864 1381.57 809.408 1380.03 810.25 1378.07 811.372 1373.58 811.933 1372.46 812.915 1371.2 813.898 1370.22 815.02 1369.94 815.722 1370.36 816.142 1371.2 816.423 1372.18 817.124 1376.53 817.265 1377.37 818.247 1378.91 819.369 1380.31 822.035 1382.55ZM850.797 1406.1 849.254 1406.24 848.131 1405.68 846.167 1403.57 844.764 1402.73 843.641 1403.01 842.94 1403.85 842.239 1404.27 832.137 1404.84 828.489 1403.15 824.561 1397.97 830.453 1396.43 831.856 1395.45 833.4 1392.92 833.259 1391.8 832.137 1390.96 831.155 1389.7 824.42 1376.81 823.999 1374.84 824.701 1372.18 824.42 1360.83 825.262 1358.31 827.086 1357.6 831.576 1352.28 835.083 1351.44 838.03 1353.68 840.976 1357.04 843.782 1359.71 849.955 1362.79 852.341 1365.17 853.323 1369.1 853.182 1371.06 852.2 1374.28 851.919 1375.68 852.341 1377.37 854.164 1380.59 854.585 1382.27 855.146 1390.96 854.585 1392.92 855.567 1394.32 856.69 1396.85 857.251 1397.97 854.726 1399.37 852.621 1404.42 850.797 1406.1ZM513.089 1313.88 515.193 1316.4 514.913 1320.04 512.247 1321.87 508.599 1319.76 503.688 1320.18 502.706 1320.61 502.706 1323.13 504.671 1324.11 506.916 1324.53 507.898 1325.37 503.969 1328.45 496.253 1327.33 490.5 1322.43 492.464 1313.88 497.234 1315.56 507.757 1311.92 513.089 1313.88ZM773.21 1494.39 771.807 1495.09 770.965 1494.81 770.965 1493.97 771.667 1490.05 772.649 1486.82 774.052 1484.86 775.595 1485.98 776.998 1488.22 778.26 1489.35 783.031 1491.87 784.434 1493.41 783.592 1494.81 781.207 1497.33 779.523 1498.04 777.279 1498.46 775.455 1497.61 774.192 1495.37 773.631 1494.11 773.21 1494.39ZM846.167 1482.2 848.131 1483.46 848.973 1486.4 848.131 1487.38 846.027 1488.08 845.325 1489.63 845.185 1491.03 843.502 1492.99 841.257 1493.55 839.854 1492.43 838.31 1492.57 837.048 1491.87 836.626 1488.79 836.907 1485.7 838.591 1483.6 841.818 1481.78 846.167 1482.2ZM871.001 1487.8 871.421 1488.93 871.843 1491.03 870.86 1493.13 861.18 1500.98 856.69 1501.54 856.83 1500.28 858.794 1497.47 859.075 1495.79 858.233 1494.53 860.758 1491.59 860.758 1488.79 859.776 1485.28 858.373 1482.76 856.971 1481.22 857.391 1480.8 860.618 1482.2 863.284 1479.96 863.845 1480.1 863.284 1482.2 864.126 1484.02 866.371 1485.28 869.878 1486.82 871.001 1487.8ZM694.921 1386.34 696.885 1386.62 698.288 1388.02 697.727 1390.54 695.903 1392.36 694.781 1392.92 694.219 1391.66 693.097 1388.58 693.377 1386.62 694.921 1386.34ZM510.002 1345.97 511.545 1346.81 511.826 1348.36 510.984 1350.46 510.283 1352.98 509.581 1355.08 508.178 1355.78 506.635 1355.64 505.372 1356.06 504.39 1357.18 503.969 1357.32 503.969 1356.62 503.969 1356.34 503.408 1355.22 501.864 1353.26 502.426 1351.3 505.653 1348.78 507.617 1346.67 508.599 1345.83 510.002 1345.97Z" stroke="#FFFFFF" stroke-width="0.701214" stroke-linecap="round" stroke-linejoin="round" stroke-miterlimit="10" stroke-opacity="1" fill="#D04A02" fill-rule="evenodd" fill-opacity="1"/><path d="M831.337 1677.56 832.743 1681.92 835.272 1685.86 836.396 1689.51 834.57 1688.67 826.138 1689.23 823.327 1688.81 822.906 1685.15 823.749 1684.03 825.295 1682.62 825.997 1680.51 821.501 1683.32 819.393 1682.34 819.955 1678.82 823.327 1674.04 822.063 1672.63 819.533 1675.73 818.549 1673.48 816.582 1674.6 817.566 1668.98 816.863 1660.26 816.02 1654.91 814.053 1648.3 815.739 1646.19 819.112 1643.1 822.766 1641.83 825.295 1645.91 825.576 1647.32 824.733 1649.01 823.327 1650.27 823.468 1651.82 826.7 1659.13 827.262 1661.52 826.419 1663.35 827.403 1665.04 829.51 1666.45 831.197 1669.4 827.262 1669.4 827.262 1670.81 828.527 1671.09 831.197 1672.63 830.916 1674.04 830.775 1675.31 831.337 1677.56ZM937.293 1571.37 946.286 1573.19 953.734 1573.19 969.473 1566.44 977.764 1570.24 985.071 1576.43 994.065 1577.7 995.611 1581.21 997.859 1583.6 1000.39 1585.01 1003.62 1591.62 1006.15 1593.45 1006.01 1598.23 1007.55 1599.78 1008.82 1602.17 1009.24 1604.84 1008.82 1607.51 1007.84 1610.05 1007.27 1612.58 1006.99 1614.69 1006.01 1616.52 1004.32 1616.94 1002.5 1616.66 1000.81 1618.48 996.875 1625.38 991.535 1633.11 964.414 1622.28 960.058 1634.52 960.62 1670.52 957.669 1673.34 955.983 1678.26 973.267 1681.64 986.336 1678.12 996.454 1694.15 999.967 1700.91 1000.95 1718.07 1004.88 1730.86 1014.3 1728.47 1022.59 1722.28 1025.26 1721.3 1030.32 1717.36 1032.99 1707.09 1035.52 1703.02 1036.5 1697.53 1039.03 1694.15 1042.12 1691.76 1044.79 1693.03 1047.32 1693.73 1046.48 1697.95 1043.39 1700.2 1041.42 1703.72 1039.74 1707.8 1035.38 1715.53 1033.13 1724.68 1032.85 1731.15 1033.27 1737.9 1039.45 1736.63 1045.08 1738.46 1050.98 1742.12 1052.94 1749.15 1052.66 1757.31 1054.35 1765.32 1058.14 1772.22 1062.5 1778.97 1058 1783.61 1053.37 1787.69 1047.75 1789.23 1042.12 1789.52 1038.05 1790.5 1026.95 1789.09 1026.24 1787.12 1027.51 1784.45 1026.39 1782.06 1024 1781.5 1017.67 1778.26 1009.1 1762.79 1002.92 1757.45 999.826 1760.68 997.297 1764.62 993.222 1765.46 990.552 1766.73 987.741 1767.71 977.342 1769.68 972.002 1771.79 966.381 1772.78 962.306 1766.45 963.992 1756.04 956.966 1754.63 937.152 1760.96 926.472 1763.21 917.338 1764.2 908.766 1774.89 904.832 1776.01 901.037 1778.69 897.805 1781.78 894.292 1783.47 889.936 1784.17 886.001 1786 883.05 1784.59 882.067 1782.91 881.786 1780.8 880.802 1777.84 879.256 1775.31 876.024 1771.09 874.338 1768.14 877.008 1766.03 875.743 1764.48 873.073 1763.5 870.684 1762.65 866.328 1755.06 863.096 1753.65 860.426 1755.2 859.302 1755.06 859.161 1752.52 854.946 1749.71 851.151 1750.42 850.027 1754.78 849.324 1756.32 848.06 1755.06 848.903 1748.16 855.367 1744.93 860.988 1743.1 868.998 1745.49 866.187 1740.71 864.642 1738.88 862.534 1737.33 861.129 1737.05 859.723 1738.04 858.599 1737.33 857.194 1735.79 855.929 1734.1 860.004 1723.13 862.253 1718.21 865.063 1716.38 862.955 1713.85 854.805 1711.31 851.994 1709.77 854.805 1707.09 863.237 1704.98 865.063 1702.59 863.799 1699.5 860.847 1698.66 854.524 1698.66 853.259 1697.67 851.011 1695 849.465 1693.59 849.465 1692.04 851.994 1692.04 849.043 1686.7 852.556 1684.73 856.491 1683.61 860.145 1678.26 868.014 1676.01 871.668 1674.04 860.567 1674.04 857.896 1675.59 853.821 1681.78 850.73 1682.34 848.903 1679.95 847.216 1675.59 846.093 1671.09 846.233 1668.42 850.168 1663.77 851.994 1660.96 851.432 1659.7 847.779 1660.96 846.093 1659.41 844.547 1658.43 843.703 1658.15 842.86 1656.04 843.563 1654.07 843.423 1651.82 842.579 1647.74 841.315 1646.05 841.315 1645.07 843.844 1644.93 847.638 1643.1 851.713 1643.24 851.994 1640.43 853.119 1637.75 851.573 1635.78 849.324 1635.22 846.233 1632.27 848.2 1629.45 850.87 1627.35 849.043 1623.97 844.547 1623.13 843.563 1619.19 844.968 1616.23 849.465 1615.53 846.936 1612.58 846.093 1611.17 845.39 1609.06 843.844 1610.47 841.174 1613.42 838.083 1614.69 837.52 1616.37 837.661 1618.06 838.926 1620.03 839.207 1624.11 837.802 1628.75 838.645 1634.94 836.677 1640.28 834.85 1642.39 831.337 1639.72 827.684 1639.58 824.03 1637.05 824.873 1624.25 826.138 1619.61 823.889 1618.62 824.592 1612.58 822.484 1610.05 819.393 1610.61 817.706 1613.7 817.285 1617.5 815.88 1620.31 811.523 1620.45 813.35 1624.11 816.723 1629.6 817.988 1633.53 815.88 1635.36 816.161 1637.33 819.393 1641.69 816.582 1642.25 814.053 1643.66 811.945 1645.63 810.259 1648.16 810.399 1646.33 810.118 1644.65 809.696 1642.96 808.994 1641.69 811.664 1635.78 806.043 1626.64 807.729 1622 806.324 1615.53 802.811 1617.5 797.752 1623.83 794.099 1625.24 791.85 1625.66 789.883 1626.5 787.915 1626.64 785.667 1625.24 785.105 1624.11 784.262 1622 783.981 1619.75 784.964 1618.77 792.834 1618.91 794.801 1617.5 794.66 1613.84 792.693 1610.19 789.742 1608.78 786.651 1607.79 784.262 1605.83 783.278 1608.64 782.716 1614.55 781.592 1617.36 779.343 1619.33 778.641 1617.36 778.922 1611.45 778.5 1605.68 779.062 1604 783.84 1597.81 784.824 1595.7 785.667 1592.6 786.229 1595 787.072 1596.96 788.056 1598.93 789.461 1600.9 790.445 1599.92 791.709 1600.06 793.115 1600.48 794.66 1600.9 792.693 1598.09 790.726 1594.43 796.066 1595.98 798.314 1595.42 799.86 1592.6 794.942 1592.32 791.99 1590.92 791.569 1587.96 794.66 1582.9 790.445 1579.24 790.726 1576.01 793.958 1573.34 798.595 1571.65 797.471 1577.41 797.892 1579.1 800.562 1579.66 805.2 1579.52 806.465 1578.68 807.729 1576.43 808.151 1571.08 807.589 1563.91 808.432 1558 812.929 1556.6 812.366 1559.97 812.507 1565.18 813.35 1570.38 815.739 1576.57 814.474 1578.82 812.648 1580.79 811.523 1582.9 811.523 1585.01 812.788 1588.53 812.929 1589.51 811.945 1590.64 808.432 1592.89 807.729 1593.45 807.87 1595.56 808.573 1597.81 809.556 1599.07 810.961 1598.37 814.193 1595.42 816.582 1595.28 822.063 1599.07 818.128 1590.64 816.723 1585.29 818.69 1582.9 821.782 1586.84 823.609 1587.96 824.592 1585.43 825.295 1584.59 827.403 1583.88 831.197 1582.9 831.197 1581.35 829.651 1581.21 825.997 1579.66 825.997 1578.12 830.494 1576.99 833.305 1572.63 834.007 1567.29 832.462 1563.35 830.775 1562.79 825.857 1562.65 823.327 1561.66 821.501 1559.41 820.939 1557.3 821.782 1556.46 824.592 1558.43 825.857 1554.77 824.452 1552.52 821.501 1551.67 817.988 1551.96 819.393 1550.13 821.36 1548.72 823.327 1548.44 825.295 1549.42 827.122 1550.83 828.667 1551.25 829.37 1550.41 828.527 1548.72 828.527 1546.89 835.553 1546.75 838.926 1547.88 840.331 1551.11 839.347 1553.08 837.52 1555.19 836.396 1557.86 837.661 1561.66 839.347 1559.97 841.455 1558.85 843.282 1558.85 844.125 1560.82 844.406 1562.51 845.249 1564.05 845.39 1565.74 845.109 1566.3 843.423 1568.41 842.86 1569.82 842.86 1580.51 843.423 1583.6 844.828 1585.71 846.233 1586.56 846.936 1585.43 847.638 1579.52 851.151 1568.13 851.994 1562.51 852.978 1561.24 855.226 1562.79 858.599 1566.44 860.004 1568.98 860.847 1571.37 862.393 1572.91 865.063 1573.05 865.063 1571.65 863.658 1569.82 862.112 1564.9 860.567 1562.51 848.903 1550.13 848.06 1549.42 848.763 1546.89 850.308 1547.17 852.276 1549 855.367 1552.8 856.913 1554.35 858.88 1555.19 861.269 1555.19 863.096 1554.07 863.237 1552.52 861.972 1550.97 859.302 1550.27 855.648 1548.58 851.713 1544.78 849.886 1539.3 849.465 1535.64 852.978 1535.5 856.07 1537.05 858.739 1539.44 862.534 1542.11 866.187 1544.64 867.733 1546.19 870.544 1548.16 873.354 1549.71 875.322 1552.94 874.338 1556.18 872.511 1558.43 872.933 1560.11 874.76 1563.63 875.04 1565.88 874.338 1569.82 876.446 1568.41 877.289 1566.58 877.71 1564.61 877.008 1558.85 877.851 1556.88 878.975 1554.77 880.802 1551.53 883.893 1549.99 886.844 1549.99 890.217 1550.41 893.871 1551.82 898.508 1552.94 901.74 1555.19 905.815 1559.27 906.096 1564.47 903.005 1574.74 905.394 1573.19 908.907 1568.55 910.874 1568.27 912.28 1570.24 912.982 1573.76 913.403 1580.51 913.263 1581.91 912.42 1585.15 912.139 1587.12 912.561 1589.09 914.247 1591.9 915.793 1599.36 915.371 1601.47 912.139 1602.31 912.701 1604.42 913.544 1605.68 914.528 1606.67 916.214 1607.37 917.338 1602.03 919.165 1598.93 920.149 1595.56 918.603 1589.51 922.397 1590.64 926.472 1591.2 919.868 1583.88 917.901 1579.81 921.835 1578.12 925.348 1577.55 933.639 1574.18 937.293 1571.37Z" stroke="#FFFFFF" stroke-width="0.701214" stroke-linecap="round" stroke-linejoin="round" stroke-miterlimit="10" stroke-opacity="1" fill="#FEB188" fill-rule="evenodd" fill-opacity="1"/><path d="M868.917 1417.06 877.641 1416.78 887.349 1416.5 898.606 1427.33 898.606 1432.95 900.576 1437.59 903.671 1439.7 905.5 1442.66 903.671 1448.56 900.997 1453.77 898.465 1455.73 897.058 1456.72 891.008 1458.55 890.445 1456.86 880.455 1455.59 875.812 1461.5 871.028 1457.84 872.998 1453.48 875.53 1449.69 873.982 1447.02 870.465 1445.19 867.369 1443.5 867.791 1439.14 867.229 1435.63 869.058 1432.39 874.545 1430.7 876.234 1429.86 876.656 1427.89 873.982 1427.19 873.279 1429.3 869.339 1429.72 868.354 1427.33 867.932 1422.97 868.917 1417.06ZM861.179 1425.5 861.882 1426.2 862.726 1427.47 863.711 1428.45 864.415 1430 864.978 1431.27 863.852 1431.69 862.304 1432.95 861.6 1433.8 858.364 1434.64 856.817 1434.36 854.847 1435.34 850.344 1437.17 847.952 1439.42 846.545 1441.81 838.244 1448 836.414 1447.58 834.726 1447.86 833.882 1447.58 833.178 1444.63 831.631 1443.78 830.927 1444.48 830.224 1444.77 830.083 1444.2 830.364 1443.36 829.942 1442.23 828.817 1442.09 827.972 1443.08 826.847 1443.92 825.44 1443.36 823.329 1442.8 824.595 1441.67 824.173 1440.27 822.063 1438.3 821.5 1437.03 822.203 1435.34 823.329 1434.92 825.018 1435.77 833.601 1429.72 839.792 1429.02 844.013 1429.16 847.952 1427.05 849.219 1421.7 851.892 1420.72 854.143 1422.97 855.128 1423.39 856.254 1423.95 857.379 1424.38 858.505 1424.52 859.631 1424.66 861.179 1425.5Z" stroke="#FFFFFF" stroke-width="0.701214" stroke-linecap="round" stroke-linejoin="round" stroke-miterlimit="10" stroke-opacity="1" fill="#D04A02" fill-rule="evenodd" fill-opacity="1"/><path d="M908.532 1774.74 917.111 1764.06 926.253 1763.07 936.942 1760.83 956.773 1754.5 963.805 1755.91 962.118 1766.31 966.196 1772.63 971.822 1771.65 977.167 1769.54 987.575 1767.57 990.388 1766.59 993.06 1765.32 997.138 1764.48 999.67 1760.54 1002.76 1757.31 1008.95 1762.65 1017.53 1778.11 1023.86 1781.35 1026.25 1781.91 1027.38 1784.3 1026.11 1786.97 1026.81 1788.94 1037.93 1790.34 1042 1789.36 1047.63 1789.08 1053.26 1787.53 1057.9 1783.46 1062.4 1778.82 1064.09 1780.78 1065.91 1782.47 1067.46 1782.19 1068.59 1780.5 1071.82 1782.33 1074.77 1785.7 1083.21 1788.52 1085.04 1790.76 1088.14 1791.61 1094.18 1787.95 1101.22 1784.72 1104.03 1787.39 1106.84 1788.94 1109.23 1786.69 1111.76 1784.16 1119.5 1797.37 1118.66 1812.41 1111.62 1819.86 1109.8 1824.78 1100.37 1829.84 1095.59 1831.39 1093.06 1831.1 1091.23 1832.23 1087.57 1839.96 1083.5 1844.32 1079.13 1848.25 1077.03 1854.3 1076.46 1861.61 1074.07 1866.81 1071.12 1872.29 1068.87 1879.46 1067.18 1886.77 1064.51 1892.11 1064.37 1898.01 1069.29 1900.12 1069.99 1902.65 1070.27 1905.6 1072.38 1911.22 1072.1 1917.13 1074.07 1921.63 1076.74 1923.45 1075.62 1929.78 1067.6 1939.34 1066.34 1945.66 1066.2 1951.28 1062.12 1955.5 1051.29 1946.65 1039.05 1942.29 1032.16 1946.08 1026.53 1952.13 1020.63 1952.97 1014.3 1952.97 1007.41 1953.95 1000.37 1953.81 997.138 1951.85 994.185 1949.6 990.809 1950.44 986.871 1950.44 981.105 1951.42 975.62 1954.66 968.587 1953.67 963.946 1948.75 964.227 1941.02 960.289 1936.67 959.164 1932.31 960.852 1925.56 957.055 1919.66 951.429 1919.94 950.022 1922.33 948.194 1924.16 946.928 1927.25 946.506 1930.62 940.599 1930.76 931.597 1918.53 925.831 1913.75 922.455 1912.35 919.08 1912.07 915.845 1915.86 909.376 1915.3 904.593 1919.52 904.593 1922.75 904.734 1925.84 903.046 1928.51 900.515 1930.34 900.655 1932.87 901.077 1935.26 899.53 1938.49 896.999 1940.74 893.904 1942.15 890.529 1943.13 887.857 1944.82 885.325 1946.79 878.855 1947.63 872.808 1949.88 867.182 1951.28 862.4 1949.74 862.681 1943.41 863.947 1937.09 865.072 1928.51 859.446 1927.11 841.022 1932.17 837.083 1933.43 837.083 1933.57 834.411 1930.48 833.427 1927.95 834.833 1922.47 838.068 1915.58 843.272 1903.63 847.632 1897.31 853.82 1895.06 860.993 1893.65 867.041 1893.23 869.854 1890.98 872.526 1887.19 876.324 1886.2 879.699 1890 883.215 1894.36 885.747 1895.2 883.215 1886.49 881.528 1882.41 878.574 1880.86 851.57 1885.22 842.147 1879.32 842.709 1872.99 842.85 1870.46 847.351 1868.35 851.289 1864.42 854.805 1860.34 860.571 1856.97 867.604 1853.03 872.948 1845.58 873.652 1838.7 876.605 1836.87 878.855 1835.46 879.981 1834.48 886.872 1833.78 893.482 1834.62 897.702 1837.99 900.796 1838.7 902.765 1842.21 903.609 1840.24 904.312 1837.71 904.593 1834.9 902.062 1832.79 900.233 1831.53 896.577 1829.7 892.498 1826.89 889.122 1824.36 887.294 1823.51 887.857 1821.55 889.404 1819.3 890.951 1818.03 892.779 1817.61 903.328 1818.31 905.719 1818.03 907.406 1817.19 908.532 1815.08 909.094 1813.39 909.938 1812.13 912.61 1811.71 913.454 1811.01 912.47 1809.18 910.36 1807.49 908.11 1806.65 907.547 1807.07 893.482 1812.69 888.841 1812.97 879.559 1812.41 870.417 1811.71 870.417 1807.63 869.854 1802.01 868.026 1800.46 862.4 1798.5 853.961 1799.9 853.117 1792.73 870.417 1790.9 879.84 1789.78 889.263 1789.22 892.357 1787.39 895.733 1788.23 899.671 1786.27 906.703 1780.93 915.564 1777.27 919.361 1774.6 919.783 1771.23 908.532 1774.74ZM802.906 1886.63 802.063 1885.78 801.5 1884.24 801.782 1882.83 803.891 1881.71 803.61 1881.29 802.625 1880.72 803.047 1880.16 804.172 1879.6 804.876 1878.61 806.001 1878.33 806.704 1878.05 806.423 1876.79 807.126 1876.79 809.376 1877.21 810.783 1876.08 811.486 1875.24 812.33 1875.94 812.752 1877.35 812.048 1879.04 808.532 1882.13 806.141 1884.66 804.594 1885.92 804.032 1886.49 802.906 1886.63Z" stroke="#FFFFFF" stroke-width="0.701214" stroke-linecap="round" stroke-linejoin="round" stroke-miterlimit="10" stroke-opacity="1" fill="#FD8A4D" fill-rule="evenodd" fill-opacity="1"/><path d="M837.843 1932.96 837.843 1932.82 841.772 1931.55 860.152 1926.51 865.764 1927.91 864.642 1936.46 863.379 1942.77 863.099 1949.08 867.869 1950.63 873.482 1949.23 879.515 1946.98 885.969 1946.14 888.495 1944.18 891.16 1942.49 894.528 1941.51 897.615 1940.11 900.14 1937.87 901.683 1934.64 901.263 1932.26 901.122 1929.73 903.648 1927.91 905.331 1925.24 905.191 1922.16 905.191 1918.93 909.962 1914.73 916.416 1915.29 919.643 1911.5 923.01 1911.78 926.378 1913.18 932.13 1917.95 941.11 1930.15 947.003 1930.01 947.424 1926.65 948.687 1923.56 950.511 1921.74 951.914 1919.35 957.526 1919.07 961.315 1924.96 959.631 1931.69 960.753 1936.04 964.682 1940.39 964.401 1948.1 969.031 1953.01 976.047 1953.99 981.519 1950.77 987.272 1949.79 991.2 1949.79 994.567 1948.94 997.514 1951.19 1000.74 1953.15 1007.76 1953.29 1014.63 1952.31 1020.95 1952.31 1026.84 1951.47 1032.45 1945.44 1039.33 1941.65 1051.53 1946 1062.34 1954.83 1061.35 1959.88 1065.28 1964.51 1067.11 1970.4 1067.95 1982.74 1070.47 1987.37 1075.24 1990.88 1079.45 1995.22 1081.14 2000.13 1083.1 2004.48 1095.03 2017.38 1097.55 2023.69 1097.55 2028.04 1097.97 2029.02 1096.71 2028.74 1088.99 2028.74 1086.47 2028.32 1085.49 2027.2 1085.07 2025.38 1083.94 2023.13 1081.7 2021.45 1081.14 2023.13 1081.56 2025.94 1081.98 2027.2 1080.58 2031.41 1079.73 2032.95 1078.05 2034.91 1070.9 2040.66 1066.83 2042.49 1064.02 2040.1 1060.37 2032.67 1057.43 2031.55 1055.32 2034.49 1054.34 2039.12 1054.48 2043.05 1056.3 2047.11 1059.25 2052.44 1062.62 2057.07 1065.7 2059.03 1067.81 2061.7 1069.77 2062.68 1072.16 2061.28 1078.05 2055.67 1082.12 2055.11 1085.63 2055.81 1088.85 2055.95 1092.5 2054.13 1092.22 2058.61 1091.66 2061.98 1089.7 2068.43 1087.59 2080.07 1085.91 2082.73 1079.31 2084.98 1073.98 2082.31 1069.77 2081.33 1066.26 2089.05 1065.14 2088.34 1064.86 2088.34 1064.58 2088.77 1063.6 2089.05 1065.14 2091.99 1066.26 2095.36 1067.67 2105.59 1066.83 2107.56 1064.86 2106.44 1061.64 2103.21 1057.15 2102.65 1053.78 2100.83 1051.53 2097.32 1050.69 2092.13 1051.81 2087.22 1054.34 2082.45 1056.02 2077.97 1055.18 2074.04 1053.64 2071.8 1050.69 2065.34 1049.85 2064.78 1048.73 2064.78 1047.6 2064.64 1046.76 2063.52 1046.62 2062.4 1046.9 2061 1047.46 2060.16 1044.66 2053.99 1044.1 2051.74 1044.38 2050.48 1045.22 2048.1 1045.36 2046.97 1044.94 2045.71 1044.1 2044.59 1043.11 2044.31 1042.69 2045.29 1042.13 2045.85 1038.9 2054.13 1037.64 2055.81 1036.94 2056.37 1035.96 2056.37 1029.5 2058.75 1025.72 2059.17 1017.44 2059.03 1014.35 2059.88 1016.88 2061.98 1021.79 2064.08 1025.86 2065.34 1025.86 2066.75 1017.72 2069.27 1013.65 2071.66 1012.95 2074.74 1014.63 2076.14 1018.14 2074.74 1020.1 2075.44 1021.37 2077.69 1021.09 2078.53 1019.96 2078.81 1019.54 2079.37 1022.07 2088.62 1027.68 2093.53 1033.57 2097.32 1037.64 2103.21 1035.68 2102.93 1032.31 2102.93 1030.91 2103.21 1039.05 2106.3 1040.17 2108.96 1040.73 2113.73 1038.9 2115.41 1036.94 2117.09 1033.29 2116.95 1030.91 2117.51 1022.21 2112.19 1019.54 2111.2 1017.02 2111.76 1013.93 2113.17 1011.4 2114.99 1010.28 2116.81 1010.7 2117.51 1012.95 2122.28 1015.61 2122.84 1017.3 2123.97 1024.45 2122 1028.38 2125.37 1019.4 2133.64 1016.17 2138.27 1012.67 2136.59 1007.2 2140.79 1007.76 2144.86 1010.28 2147.53 1004.95 2147.53 997.233 2137.29 994.567 2131.68 987.412 2123.97 985.167 2124.53 977.73 2128.45 978.432 2130.84 978.993 2131.68 975.906 2130.7 972.96 2130.14 970.294 2128.73 968.61 2125.37 968.33 2122 969.593 2120.04 973.802 2117.51 975.205 2116.39 978.993 2111.2 981.378 2106.3 982.641 2104.61 985.448 2103.21 985.307 2107 984.325 2110.78 981.519 2117.51 987.131 2117.23 991.761 2115.41 994.567 2111.62 994.567 2104.75 993.445 2102.09 991.901 2100.55 990.779 2098.86 990.639 2095.36 991.621 2093.53 997.093 2087.36 999.198 2088.48 1000.46 2089.89 1000.74 2091.71 999.759 2093.81 1000.88 2096.9 1002.57 2099 1004.67 2099.7 1007.62 2098.58 1008.88 2097.04 1011.54 2091.43 1012.95 2089.05 1010.28 2085.12 1009.3 2080.91 1007.9 2079.09 1004.39 2081.89 1000.18 2083.72 996.812 2080.77 992.042 2073.2 989.376 2077.41 985.588 2087.36 982.922 2090.59 980.116 2091.71 977.871 2091.57 973.1 2090.59 970.855 2091.43 968.751 2093.25 965.243 2097.88 963.7 2099.14 956.825 2103.21 953.036 2106.02 950.651 2107.42 948.266 2108.12 946.863 2108.82 946.582 2110.78 946.582 2113.31 946.301 2115.97 945.039 2117.94 943.215 2119.9 942.373 2122.42 943.776 2125.37 933.253 2135.75 933.674 2145.28 931.85 2146.83 926.799 2144.3 925.115 2146.4 924.273 2148.65 924.413 2151.03 925.536 2153.84 923.01 2153 917.678 2149.21 910.382 2147.11 908.699 2145.98 907.296 2141.64 907.997 2130 907.296 2125.37 908.278 2122.56 908.138 2118.92 906.875 2115.83 904.63 2114.29 902.666 2114.85 900.561 2116.81 899.018 2119.34 898.316 2121.44 899.158 2124.67 900.28 2127.47 900.421 2129.44 894.528 2131.4 895.229 2134.2 899.579 2139.53 892.283 2143.88 889.477 2146.4 892.283 2147.53 892.984 2147.95 893.125 2149.07 892.984 2150.19 892.283 2150.75 891.16 2150.47 889.336 2149.49 888.495 2149.21 885.969 2149.63 885.408 2150.61 885.408 2152.29 884.425 2154.68 883.022 2155.66 877.27 2157.06 875.165 2158.89 874.464 2160.29 869.834 2175.85 869.412 2178.1 869.412 2180.76 864.782 2179.78 856.083 2182.73 853.839 2182.17 853.558 2179.5 855.382 2174.03 854.961 2171.37 853.277 2169.82 850.892 2169.4 845.841 2169.68 845.841 2168.14 846.963 2166.88 847.244 2165.9 847.665 2162.39 848.226 2162.25 849.068 2162.53 849.91 2161.97 852.576 2157.06 853.137 2154.68 852.435 2152.29 851.453 2151.59 850.05 2151.03 847.244 2150.75 845.139 2150.19 844.859 2148.93 845.42 2147.81 845.841 2147.53 845.981 2144.58 846.683 2141.64 846.402 2140.09 843.315 2141.22 844.157 2135.61 847.945 2132.8 852.997 2131.82 857.767 2131.68 856.925 2130 855.662 2128.59 854.259 2127.61 852.435 2127.05 855.382 2124.95 857.206 2122.42 857.346 2120.32 854.961 2118.92 854.119 2119.34 852.435 2121.44 851.173 2122.28 849.629 2122.28 847.244 2120.74 845.841 2120.74 844.718 2121.72 843.877 2123.26 843.315 2125.37 841.631 2125.79 839.948 2125.79 838.124 2125.37 834.055 2125.51 831.81 2125.93 829.004 2127.05 828.723 2123.26 827.04 2121.16 822.55 2118.92 822.55 2118.22 821.568 2116.39 820.445 2115.27 819.884 2116.81 819.322 2117.66 818.06 2118.36 816.516 2118.78 815.254 2118.22 811.325 2114.43 810.764 2114.29 810.202 2111.91 810.483 2111.2 811.325 2110.92 812.026 2109.66 812.728 2110.78 814.692 2110.78 816.096 2109.66 815.254 2107.28 810.202 2104.75 806.274 2101.95 805.853 2095.22 807.536 2087.78 809.501 2082.73 809.782 2080.91 809.641 2078.81 809.922 2076.98 811.465 2076.28 812.868 2076.42 814.412 2076.84 815.394 2077.55 816.657 2080.35 822.55 2089.05 820.726 2091.43 820.164 2093.67 820.445 2096.06 821.146 2098.58 825.075 2109.66 827.46 2111.06 836.861 2112.61 840.93 2115.41 843.035 2115.27 844.578 2111.2 842.473 2111.62 841.351 2111.06 837.422 2110.08 835.598 2107.28 833.213 2104.89 833.774 2099.56 831.249 2099.98 830.126 2103.21 828.162 2103.49 826.899 2099.14 826.338 2093.39 827.741 2090.03 826.619 2085.96 831.95 2085.54 839.807 2087.22 840.93 2089.05 840.369 2092.13 840.509 2092.97 840.369 2093.95 840.79 2095.36 842.754 2096.62 844.017 2098.16 846.402 2099.84 849.91 2101.11 851.874 2103.07 854.54 2105.03 856.504 2106.3 857.346 2105.31 853.417 2100.12 855.802 2099.56 859.311 2101.53 863.8 2104.05 869.272 2105.87 873.341 2104.75 869.272 2104.05 866.045 2102.09 860.293 2097.04 861.696 2095.36 857.627 2092.27 851.313 2084.28 847.945 2082.73 843.175 2081.75 837.563 2082.03 833.634 2079.65 828.864 2080.91 824.514 2079.37 823.953 2077.27 826.619 2073.76 829.284 2072.78 834.897 2073.62 842.193 2070.39 850.892 2076.84 853.839 2076.28 854.54 2076.7 854.961 2077.27 855.522 2077.55 856.364 2077.97 855.522 2073.48 855.943 2069.41 858.188 2066.47 862.959 2065.34 871.658 2067.87 876.007 2068.29 874.744 2065.34 877.691 2063.8 879.234 2063.52 881.198 2063.52 878.392 2060.3 874.043 2059.59 864.221 2060.44 864.923 2058.19 864.642 2056.65 864.221 2055.11 864.221 2052.72 864.923 2051.18 865.905 2050.06 866.747 2048.52 866.747 2046.13 865.203 2042.77 862.678 2041.92 859.872 2043.33 857.767 2046.13 857.487 2048.1 858.749 2052.02 859.03 2054.13 858.749 2054.41 856.364 2059.03 854.259 2066.89 852.295 2069.55 848.507 2069.83 848.507 2069.41 847.384 2068.43 848.086 2067.17 849.068 2064.78 849.91 2063.52 847.384 2062.26 845.56 2063.1 843.877 2064.5 841.491 2065.34 836.3 2064.22 834.756 2064.92 834.476 2067.31 831.81 2067.31 827.741 2068.57 825.777 2067.59 825.075 2065.2 826.478 2062.82 830.267 2059.03 831.669 2056.79 832.511 2055.11 832.792 2053.56 832.932 2051.74 832.371 2048.38 833.073 2046.55 835.458 2044.45 833.213 2042.63 831.108 2038.7 829.986 2034.21 830.267 2030.28 832.932 2027.9 836.58 2025.52 837.703 2023.41 832.932 2022.29 830.688 2022.71 829.425 2023.83 828.443 2024.96 827.04 2025.52 825.216 2026.36 825.496 2028.74 826.338 2031.27 826.478 2033.51 823.812 2035.89 820.305 2036.17 817.078 2035.05 814.692 2033.51 816.376 2032.25 817.218 2031.97 815.534 2030.71 814.131 2029.3 813.009 2027.62 812.026 2025.52 814.271 2024.39 816.376 2024.39 821.146 2025.52 820.585 2020.47 825.777 2015.14 824.374 2010.37 819.042 2002.8 815.674 1999.71 812.026 1998.45 813.57 2003.78 812.167 2006.72 809.501 2006.86 806.835 2003.22 808.659 2000.83 803.748 1994.24 803.047 1990.46 805.712 1987.23 809.641 1986.67 813.149 1988.49 814.692 1992.14 817.078 1990.6 818.34 1987.93 819.884 1982.6 821.287 1985.27 821.568 1987.51 821.006 1991.86 820.164 1993.96 819.884 1995.36 820.305 1996.77 821.006 1996.77 821.988 1996.35 822.55 1996.77 823.251 1999.85 823.532 2001.11 824.093 2001.96 826.478 2003.22 828.302 2003.92 831.529 2004.06 832.932 2004.9 831.81 2007.57 832.091 2010.09 833.494 2012.47 835.458 2014.58 840.369 2003.64 840.79 1999.99 840.79 1995.79 839.807 1994.38 836.159 1993.4 834.756 1992.56 833.494 1991.3 831.529 1986.11 825.216 1978.82 823.812 1975.45 824.233 1974.33 825.075 1973.35 826.057 1972.08 826.478 1969.98 824.374 1968.44 823.392 1966.61 823.812 1963.39 821.427 1964.37 818.902 1964.79 813.43 1964.93 815.534 1962.27 819.042 1961.43 822.97 1961.29 826.478 1960.44 825.356 1959.88 824.654 1959.46 823.953 1958.9 822.55 1958.62 823.392 1956.52 824.514 1955.26 825.777 1954.41 827.04 1953.01 827.741 1951.33 827.32 1949.79 826.759 1948.24 826.478 1946.7 827.04 1943.05 828.723 1939.41 832.932 1933.1 834.055 1934.22 836.861 1937.87 840.229 1938.85 841.912 1938.71 841.491 1937.02 837.843 1932.96ZM942.092 1963.53 932.271 1959.88 927.079 1961.43 922.168 1962.55 915.293 1960.87 911.225 1964.65 916.416 1976.15 926.799 1982.32 938.444 1984.29 946.021 1974.19 942.092 1963.53ZM977.871 2138.55 983.764 2137.85 986.851 2138.13 989.376 2139.39 991.481 2143.04 990.919 2147.39 988.394 2150.89 984.886 2152.29 977.029 2153.84 973.942 2153.28 971.697 2152.29 967.207 2149.21 967.207 2147.53 968.19 2146.26 968.47 2145.14 967.628 2144.16 965.944 2142.9 968.61 2140.93 971.557 2139.67 977.871 2138.55ZM826.899 2135.19 827.32 2138.27 826.759 2141.92 825.777 2145.28 821.988 2153.28 820.445 2155.8 818.621 2157.06 818.2 2156.36 814.973 2153.28 813.43 2152.29 813.43 2153.84 812.728 2157.48 794.628 2167.3 792.383 2168.14 784.386 2168.84 782.141 2168.14 781.86 2166.18 782.842 2164.5 784.245 2163.09 784.807 2161.97 783.825 2160.57 778.353 2157.06 778.353 2161.97 774.284 2157.2 776.669 2149.49 782.141 2143.32 787.473 2142.9 789.156 2137.85 790.279 2136.17 791.963 2134.2 794.067 2133.08 795.891 2132.66 797.294 2131.68 797.715 2128.45 799.96 2131.12 803.047 2131.54 805.712 2129.72 806.835 2126.21 805.432 2123.26 800.521 2119.48 801.784 2117.51 804.871 2117.37 807.958 2119.06 810.764 2121.16 812.728 2122.28 813.289 2122.98 813.85 2124.39 814.692 2125.93 815.955 2127.05 816.797 2126.77 821.146 2123.97 821.287 2125.93 826.899 2135.19ZM1093.63 2092.13 1095.59 2092.69 1097.41 2095.5 1098.68 2098.86 1100.36 2104.61 1100.5 2107.98 1099.94 2111.2 1098.54 2114.43 1096.71 2116.39 1094.47 2116.53 1092.36 2115.41 1085.63 2108.54 1084.93 2105.87 1086.05 2101.67 1086.89 2100.55 1090.4 2097.88 1091.1 2096.48 1092.5 2090.59 1089.56 2087.5 1089.98 2085.68 1092.08 2084.7 1094.33 2084.42 1096.43 2085.26 1096.99 2087.5 1096.01 2090.03 1093.63 2092.13ZM752.536 2085.54 754.921 2087.64 755.482 2088.48 755.622 2090.31 755.342 2092.13 754.5 2093.81 751.554 2097.74 750.291 2098.72 748.888 2098.86 747.064 2098.58 746.923 2097.88 744.258 2096.34 741.311 2094.94 740.469 2095.36 738.645 2091.43 740.048 2089.61 745.661 2087.36 749.028 2082.73 750.291 2082.03 750.993 2082.59 752.536 2085.54ZM756.044 2069.83 756.044 2074.74 755.202 2074.32 753.097 2073.76 752.115 2073.2 750.431 2075.44 747.906 2075.44 745.521 2074.88 744.398 2075.44 743.977 2078.67 742.995 2081.33 741.311 2083.44 739.066 2084.42 736.821 2084.14 735.278 2082.59 734.296 2080.07 733.875 2077.13 734.436 2074.18 735.979 2072.22 738.084 2070.81 740.469 2069.83 742.995 2070.95 746.362 2070.11 752.676 2067.73 753.939 2067.59 754.781 2067.73 755.482 2068.43 756.044 2069.83ZM765.304 2039.12 766.146 2036.03 767.97 2035.61 770.074 2037.02 771.618 2039.68 772.039 2043.05 771.478 2046.27 770.074 2049.08 767.83 2050.9 765.023 2051.74 763.48 2051.18 762.217 2050.06 760.674 2049.5 754.5 2050.9 752.115 2050.9 752.115 2049.5 753.939 2047.81 757.446 2042.35 759.972 2039.96 761.235 2040.1 763.059 2040.52 764.602 2040.52 765.304 2039.12ZM775.687 2007.14 774.704 2007.43 769.654 2006.16 767.83 2006.44 767.128 2005.88 766.707 2005.32 766.146 2005.04 765.304 2004.9 766.847 1997.47 767.83 1995.36 769.092 1994.52 771.337 1993.82 773.442 1992.84 774.424 1991.3 775.827 1988.07 779.335 1985.97 783.123 1984.99 786.069 1985.83 780.317 1989.19 778.914 1991.16 778.774 1993.4 779.615 1995.79 782.141 1999.99 780.177 2000.83 778.072 2002.94 776.388 2005.32 775.687 2007.14ZM1003.69 2245.13 1004.81 2246.26 1006.21 2246.54 1006.63 2247.38 1006.49 2248.5 1003.69 2247.24 1001.16 2246.54 1000.6 2245.84 1000.04 2244.29 999.619 2242.33 998.917 2241.91 998.356 2241.21 997.795 2239.52 998.075 2238.68 998.075 2237.56 998.215 2236.58 998.777 2236.44 999.478 2236.72 1000.32 2236.44 1000.88 2235.74 1001.16 2235.74 1001.58 2236.72 1000.88 2238.82 1001.3 2241.21 1003.69 2245.13ZM1046.06 2146.26 1046.9 2148.51 1046.9 2149.91 1045.5 2151.45 1041.99 2153.7 1039.05 2154.54 1037.92 2153.98 1037.78 2152.01 1036.52 2150.61 1034.56 2150.05 1033.71 2148.79 1034.27 2147.95 1032.17 2146.54 1030.91 2145.56 1031.61 2143.88 1031.47 2142.62 1031.19 2141.64 1032.03 2141.08 1033.43 2141.64 1034.84 2142.48 1037.5 2143.18 1037.5 2143.74 1038.48 2143.46 1040.17 2141.78 1041.85 2141.78 1046.06 2146.26ZM1093.77 2133.22 1095.03 2133.92 1095.87 2135.19 1095.45 2136.59 1093.06 2137.43 1091.52 2137.57 1091.24 2137.15 1090.54 2136.17 1088.85 2135.19 1086.05 2134.34 1084.22 2132.8 1083.38 2130.84 1082.4 2129.44 1080.86 2128.59 1079.45 2126.91 1080.44 2124.95 1083.66 2123.55 1087.17 2122.98 1089.7 2124.81 1092.5 2130.42 1092.22 2132.1 1092.36 2132.94 1093.77 2133.22ZM773.722 2112.47 774.143 2112.89 774.564 2114.01 774.284 2116.53 773.722 2119.06 773.582 2121.3 772.46 2122.42 770.916 2123.55 769.373 2125.09 765.584 2127.33 763.62 2127.61 761.375 2126.91 760.674 2125.79 761.796 2125.37 762.919 2125.37 763.901 2124.39 765.023 2123.55 764.883 2122.7 760.674 2121.72 761.656 2120.6 764.322 2120.18 766.988 2120.04 769.232 2118.36 770.074 2116.11 769.232 2113.87 767.268 2110.78 766.146 2106.86 767.549 2105.87 769.794 2107.7 771.197 2109.1 773.582 2110.5 773.722 2112.47ZM761.936 2118.78 760.112 2119.62 758.569 2118.36 757.868 2110.36 758.569 2105.87 760.112 2103.77 762.498 2109.1 764.602 2112.05 766.146 2115.41 765.584 2118.08 763.901 2118.64 761.936 2118.78ZM649.269 2091.29 651.374 2090.73 651.794 2091.71 650.111 2093.25 649.269 2094.37 648.708 2095.64 645.761 2099.14 645.2 2100.83 643.937 2102.93 642.955 2104.19 642.113 2105.17 640.289 2104.33 639.027 2100.97 639.307 2097.88 640.289 2095.08 641.552 2092.69 642.955 2090.45 644.639 2089.33 646.182 2088.91 647.024 2089.61 647.585 2091.29 649.269 2091.29ZM787.753 2081.05 788.455 2083.02 788.455 2085.54 787.473 2087.78 784.947 2087.92 782.702 2085.68 781.018 2083.16 778.914 2083.16 777.932 2084 777.23 2084.42 775.827 2084.56 774.564 2083.58 774.143 2081.47 772.46 2078.39 768.671 2074.46 767.97 2072.5 769.794 2072.92 771.197 2072.92 772.6 2072.22 774.704 2072.08 777.09 2072.36 778.914 2073.2 780.036 2074.46 781.72 2075.3 783.965 2075.44 785.789 2075.86 787.052 2076.98 787.753 2078.39 787.613 2079.51 787.753 2081.05ZM786.771 2067.31 786.21 2067.87 785.508 2069.27 785.929 2072.5 784.807 2073.62 782.422 2074.32 780.317 2073.06 777.791 2070.95 774.564 2069.69 772.319 2068.29 774.143 2066.75 778.914 2066.05 781.72 2064.78 783.123 2063.52 784.947 2064.36 786.35 2066.33 786.771 2067.31ZM769.794 2060.16 768.25 2058.05 766.847 2055.53 767.408 2053.7 770.215 2052.3 772.46 2052.16 774.284 2053.14 776.108 2053.14 776.529 2051.74 776.248 2048.94 778.072 2047.25 780.457 2047.25 781.72 2047.11 782.702 2047.67 783.544 2048.94 783.825 2050.48 781.299 2052.02 782.141 2055.67 781.72 2057.77 780.317 2058.61 778.493 2058.61 777.23 2060.02 777.37 2062.54 776.669 2064.78 774.704 2065.91 773.021 2065.77 772.6 2064.36 772.6 2063.52 769.794 2060.16ZM801.503 2038.56 799.82 2039.26 797.575 2039.12 796.593 2037.16 797.013 2034.91 798.417 2034.07 801.784 2034.07 802.766 2034.49 802.907 2035.47 802.205 2037.86 801.503 2038.56ZM788.595 2007.85 789.016 2008.83 789.297 2010.09 789.156 2012.33 788.455 2013.03 787.473 2013.6 786.49 2013.17 784.666 2011.35 783.965 2010.79 782.983 2011.35 782.001 2011.21 781.72 2010.23 781.018 2009.81 780.036 2009.81 779.755 2009.39 781.159 2008.27 780.598 2007.99 779.755 2008.13 778.914 2007.85 779.335 2006.86 780.738 2005.88 782.001 2005.74 783.684 2006.44 786.069 2006.3 787.753 2006.72 788.595 2007.85ZM588.796 2238.68 587.814 2238.12 584.026 2234.62 581.921 2233.35 581.5 2231.53 582.482 2229.15 583.885 2227.74 585.99 2228.45 587.674 2230.55 590.339 2236.16 590.62 2237.98 589.919 2239.1 589.217 2238.96 588.796 2238.68ZM868.571 2211.06 870.254 2211.76 871.798 2213.72 871.377 2214.84 870.535 2214.14 869.974 2214 869.553 2214.84 868.851 2214.56 867.168 2213.58 865.344 2213.72 864.362 2214.7 863.66 2215.96 861.555 2217.37 859.591 2219.05 856.785 2220.73 853.137 2220.59 851.173 2217.93 851.032 2214.42 852.716 2211.06 856.083 2208.67 858.889 2208.67 862.678 2211.06 863.8 2211.2 865.344 2210.77 867.588 2210.77 868.571 2211.06ZM882.461 2214.56 883.303 2214.98 883.864 2216.1 883.303 2216.81 882.461 2216.95 882.181 2218.35 882.181 2220.73 881.198 2222.42 879.374 2222.98 878.392 2222.42 878.112 2221.29 877.13 2220.59 876.147 2220.45 875.726 2217.37 876.989 2212.04 877.41 2209.09 876.147 2207.83 875.726 2206.85 877.27 2205.31 877.41 2204.6 879.094 2204.6 882.321 2206.15 882.742 2208.39 880.918 2210.07 880.637 2211.76 882.461 2214.56ZM927.64 2204.46 929.464 2206.01 930.587 2207.41 930.166 2210.21 929.605 2211.48 928.482 2213.58 926.237 2214.84 923.431 2215.12 921.327 2214 919.643 2212.46 918.38 2212.6 917.678 2213.72 916.977 2213.3 916.135 2209.79 917.398 2207.41 917.678 2205.17 918.38 2203.48 919.783 2202.22 922.449 2200.82 925.676 2201.66 927.64 2204.46ZM871.096 2199.7 871.938 2200.82 872.078 2202.78 870.675 2203.9 870.114 2206.57 867.308 2206.71 865.764 2206.99 866.747 2208.67 865.764 2209.51 862.818 2208.67 861.275 2207.27 860.994 2206.43 860.152 2206.15 859.311 2205.87 859.03 2205.17 860.012 2202.36 860.573 2201.38 860.714 2200.68 860.293 2200.12 860.433 2199.56 861.134 2199.28 861.555 2198.71 861.415 2198.15 860.573 2196.47 861.134 2195.91 862.678 2196.47 864.081 2197.17 868.01 2197.87 870.114 2199 871.096 2199.7ZM771.478 2179.08 771.337 2181.6 771.618 2183.29 770.776 2184.55 768.952 2184.83 767.83 2185.67 766.988 2185.39 766.286 2184.13 765.584 2184.13 765.304 2185.25 764.041 2185.39 760.112 2183.85 758.85 2181.89 758.709 2180.62 759.411 2179.5 759.551 2178.38 760.954 2177.4 767.549 2178.8 770.215 2178.38 771.478 2179.08ZM917.117 2178.94 916.276 2179.78 914.592 2180.06 913.61 2178.8 913.189 2176.98 912.207 2175.57 910.803 2175.01 908.839 2175.29 906.594 2176.14 904.77 2176 903.929 2175.71 903.227 2175.15 899.018 2173.33 898.737 2172.63 900.701 2172.35 902.666 2171.79 903.507 2171.23 904.209 2170.95 905.612 2171.23 907.436 2171.93 909.541 2171.09 912.066 2168.98 914.03 2168.56 915.153 2169.4 916.556 2169.68 917.258 2169.68 918.1 2169.54 920.204 2169.68 922.87 2170.39 924.554 2171.37 924.273 2173.05 923.151 2174.31 922.87 2175.15 922.589 2176.7 921.467 2178.1 919.783 2177.82 918.1 2178.1 917.117 2178.94ZM962.296 2170.53 962.998 2171.09 963.279 2172.21 962.156 2172.49 960.613 2171.65 958.649 2171.23 957.245 2171.79 957.807 2172.35 958.929 2173.05 957.526 2174.45 954.159 2176.98 952.335 2177.96 952.054 2175.85 953.036 2174.45 954.299 2173.61 953.597 2172.77 949.388 2171.93 949.949 2170.95 949.529 2169.82 948.266 2168.98 945.039 2168.7 943.776 2168.28 943.215 2167.86 943.776 2167.44 945.179 2167.16 946.161 2166.46 947.985 2164.36 949.809 2162.81 949.669 2162.11 950.37 2162.39 951.633 2163.65 952.896 2165.48 953.597 2167.58 955.141 2168.28 957.667 2167.44 959.631 2167.16 960.473 2168 961.174 2169.12 962.296 2170.53ZM900 2178.8 900.421 2180.2 901.403 2182.73 900.842 2183.43 899.859 2183.29 898.877 2183.01 897.194 2182.17 895.791 2181.32 894.949 2181.46 894.808 2182.87 893.826 2183.29 892.143 2182.59 889.336 2181.89 885.688 2180.62 885.688 2179.08 887.512 2177.82 886.951 2176.14 885.408 2175.71 883.444 2176.14 880.918 2175.43 878.673 2174.03 877.27 2172.35 876.709 2169.82 876.568 2167.02 876.709 2164.07 877.55 2161.13 878.954 2159.03 881.058 2158.04 882.181 2157.76 885.548 2157.34 887.653 2158.04 889.757 2159.45 892.002 2162.11 893.686 2166.6 894.247 2170.25 894.808 2171.93 895.931 2173.33 896.492 2175.29 900 2178.8ZM899.719 2161.83 898.737 2161.69 897.895 2160.85 898.597 2159.45 899.579 2158.18 900.842 2155.24 903.507 2151.73 907.296 2149.63 911.225 2148.65 913.61 2149.07 914.452 2150.47 914.592 2152.01 913.61 2153 913.75 2153.56 915.574 2154.68 916.977 2156.22 918.24 2158.18 918.52 2159.59 917.117 2159.73 913.189 2158.61 911.505 2159.03 910.523 2160.43 905.612 2162.67 903.788 2165.06 903.227 2167.58 902.245 2168.28 900.982 2166.88 900.982 2164.5 900.561 2162.39 899.719 2161.83ZM819.463 2050.62 823.111 2051.88 823.532 2056.79 819.744 2060.3 817.639 2059.45 818.902 2058.05 819.463 2056.79 819.042 2055.81 813.71 2053 812.868 2052.58 807.256 2053.42 804.731 2054.69 801.924 2055.11 799.679 2054.27 798.557 2052.86 799.539 2051.6 802.626 2051.46 806.414 2050.06 807.116 2049.08 807.817 2048.52 807.958 2047.53 810.343 2046.83 811.185 2045.29 811.325 2043.61 809.782 2041.64 809.22 2039.26 811.185 2038.28 814.552 2038.98 817.92 2040.8 820.305 2043.19 820.024 2044.59 818.481 2044.73 815.534 2046.69 815.113 2047.81 815.254 2049.08 815.534 2050.2 816.797 2050.62 819.463 2050.62ZM799.259 2008.13 799.539 2007 798.276 2006.58 793.365 2005.88 792.383 2004.9 790.7 2004.76 789.858 2004.48 789.016 2003.78 787.893 2003.22 786.911 2001.96 784.807 1997.19 786.069 1995.36 788.455 1994.52 790.7 1995.36 792.383 1996.49 794.067 1995.93 795.891 1995.08 797.013 1995.64 797.435 1996.63 798.417 1996.63 799.539 1996.21 800.1 1997.75 798.697 1999.15 797.013 1999.15 796.172 2000.13 796.172 2001.25 798.276 2003.5 800.1 2004.2 802.065 2004.34 803.187 2006.02 803.748 2008.13 804.731 2009.39 805.011 2011.21 804.31 2013.46 803.608 2014.02 803.047 2013.32 800.942 2012.75 799.96 2011.63 799.259 2010.23 799.259 2008.13Z" stroke="#FFFFFF" stroke-width="0.701214" stroke-linecap="round" stroke-linejoin="round" stroke-miterlimit="10" stroke-opacity="1" fill="#FD8A4D" fill-rule="evenodd" fill-opacity="1"/><path d="M1061.48 1955.18 1065.56 1950.98 1065.71 1945.37 1066.97 1939.06 1074.99 1929.53 1076.12 1923.23 1073.44 1921.4 1071.47 1916.92 1071.76 1911.03 1069.65 1905.43 1069.36 1902.48 1068.66 1899.96 1063.74 1897.86 1063.88 1891.97 1066.55 1886.65 1068.24 1879.36 1070.49 1872.21 1073.44 1866.74 1075.84 1861.56 1076.4 1854.27 1078.51 1848.24 1082.87 1844.32 1086.95 1839.97 1090.61 1832.26 1092.44 1831.14 1094.97 1831.42 1099.75 1829.88 1109.18 1824.83 1111.01 1819.93 1118.04 1812.5 1119.59 1817.69 1123.39 1819.93 1125.22 1821.33 1126.91 1822.73 1127.19 1824.69 1127.89 1826.52 1129.44 1827.22 1130.99 1827.78 1136.76 1828.2 1139.29 1830.3 1142.38 1832.4 1147.87 1832.82 1153.22 1832.68 1158.14 1834.37 1161.8 1838.29 1164.33 1843.2 1168.55 1846.14 1169.68 1848.38 1170.24 1850.34 1173.2 1852.17 1175.73 1855.11 1175.59 1860.72 1173.34 1865.9 1176.29 1876.69 1188.11 1877.25 1193.88 1876.41 1199.37 1877.39 1204.57 1879.78 1209.5 1883.42 1214.84 1884.54 1225.11 1879.36 1230.32 1880.34 1234.96 1873.61 1239.46 1870.25 1241.01 1883.14 1245.8 1889.03 1251.7 1892.81 1258.74 1892.11 1265.77 1890.85 1272.1 1892.67 1278.01 1895.76 1285.05 1896.04 1291.38 1891.13 1294.05 1890.15 1296.87 1889.73 1299.4 1887.49 1301.65 1884.68 1308.54 1881.88 1315.86 1883.7 1321.49 1886.22 1326.83 1884.54 1327.68 1893.79 1322.9 1903.32 1325.71 1909.07 1337.53 1910.89 1342.45 1914.68 1350.61 1924.07 1360.46 1929.53 1364.82 1932.9 1366.09 1939.35 1370.31 1943.41 1375.66 1945.37 1376.5 1946.07 1375.66 1949.16 1375.23 1953.36 1374.11 1955.6 1372.84 1957.57 1373.97 1960.79 1373.97 1962.05 1371.86 1966.4 1368.76 1972.84 1365.39 1976.91 1363.56 1980.69 1363.28 1981.39 1362.85 1980.55 1359.05 1976.63 1355.54 1972.28 1351.18 1968.64 1347.8 1964.01 1346.67 1958.83 1343.01 1956.45 1338.09 1956.3 1333.59 1958.13 1330.07 1960.79 1327.26 1964.15 1325.29 1977.89 1322.61 1981.95 1319.66 1985.6 1318.11 1988.4 1317.27 1987.56 1315.44 1990.22 1309.67 2000.46 1307 2000.6 1306.86 1995.83 1307 1991.49 1305.73 1991.2 1304.04 1994.99 1302.78 2000.46 1297.99 1999.89 1285.47 2000.18 1284.77 1995.83 1283.5 1993.59 1281.67 2000.03 1279.84 2001.02 1275.34 1999.05 1273.23 1995.13 1270.98 1994.85 1268.02 1997.09 1268.02 1987 1267.32 1986.16 1265.63 1986.72 1264.23 1988.96 1264.23 1992.47 1261.13 1990.08 1258.74 1986.72 1256.21 1984.62 1252.27 1986.16 1253.11 1982.94 1251.56 1978.17 1252.27 1976.49 1250.44 1970.32 1249.31 1969.76 1247.06 1971.72 1244.81 1975.37 1244.67 1977.89 1247.06 1982.94 1248.47 1989.1 1249.31 1991.2 1250.86 1994.01 1254.1 1998.35 1254.52 2000.46 1253.67 2003.54 1255.08 2003.82 1257.47 2004.8 1258.88 2005.22 1257.19 2006.34 1255.5 2006.76 1251.56 2006.76 1249.59 2006.2 1249.03 2005.08 1248.89 2003.54 1248.33 2002 1246.5 2000.03 1245.09 1999.05 1234.82 1995.41 1232.01 1995.27 1225.68 1996.39 1223.99 1997.23 1224.13 1998.91 1226.24 2002 1222.72 2002.7 1216.25 2006.06 1208.65 2008.02 1207.67 2010.97 1207.39 2014.19 1205.27 2016.29 1205.27 2017.84 1224.41 2007.74 1227.5 2007.46 1228.21 2011.67 1229.33 2014.61 1229.76 2017.27 1228.21 2020.36 1225.82 2021.76 1222.02 2022.32 1218.36 2022.18 1215.83 2021.2 1214.56 2023.44 1215.4 2024.56 1217.23 2025.54 1218.5 2027.51 1218.64 2028.63 1218.78 2030.45 1218.5 2035.22 1217.09 2044.75 1218.78 2046.43 1220.47 2045.87 1221.74 2044.05 1222.44 2041.66 1224.97 2044.75 1222.3 2049.51 1217.52 2055.82 1213.29 2057.08 1207.53 2056.66 1207.53 2053.16 1211.32 2053.02 1212.87 2052.74 1213.86 2051.19 1201.9 2049.93 1199.51 2048.95 1196.69 2045.17 1196.41 2043.2 1198.38 2041.94 1202.74 2040.26 1198.38 2031.57 1195.29 2034.65 1192.05 2040.68 1187.69 2040.96 1183.61 2035.64 1181.5 2034.23 1177.28 2033.81 1175.31 2034.93 1174.18 2037.74 1173.9 2041.38 1173.9 2044.75 1169.96 2044.05 1161.1 2044.47 1157.58 2042.5 1157.16 2041.24 1157.16 2037.88 1156.88 2037.04 1156.03 2036.76 1153.92 2037.18 1151.11 2036.48 1146.61 2036.06 1145.06 2035.22 1144.21 2033.39 1144.35 2031.57 1144.78 2029.89 1145.06 2028.35 1144.78 2011.11 1145.06 2008.3 1145.62 2007.04 1146.61 2005.36 1147.45 2003.12 1147.73 2000.32 1144.78 2003.82 1142.24 2008.02 1139.29 2011.11 1134.65 2011.53 1138.16 2019.66 1135.77 2021.34 1130.57 2021.2 1125.64 2024.28 1123.67 2018.82 1122.41 2016.43 1120.3 2014.89 1119.73 2022.32 1117.76 2028.21 1113.68 2031.71 1108.62 2032.27 1106.65 2031.43 1104.82 2031.01 1103.27 2031.15 1102.15 2032.27 1099.19 2029.89 1097.22 2029.33 1096.8 2028.35 1096.8 2024 1094.27 2017.7 1082.31 2004.8 1080.34 2000.46 1078.65 1995.55 1074.43 1991.2 1069.65 1987.7 1067.11 1983.08 1066.27 1970.74 1064.44 1964.85 1060.5 1960.23 1061.48 1955.18ZM1147.73 2062.27 1148.72 2064.93 1148.15 2067.17 1147.17 2069.69 1146.61 2072.64 1147.03 2077.4 1146.89 2080.21 1145.76 2081.33 1144.35 2082.17 1145.9 2086.93 1145.2 2089.32 1142.24 2089.88 1139.43 2088.2 1136.33 2086.79 1132.82 2088.48 1129.72 2088.9 1127.89 2084.41 1125.64 2075.02 1122.55 2073.34 1120.01 2075.16 1118.33 2078.95 1117.76 2083.85 1116.64 2085.81 1113.82 2085.95 1111.01 2084.97 1109.32 2083.85 1108.05 2081.75 1107.77 2080.07 1107.77 2077.96 1107.35 2075.02 1102.15 2057.92 1101.44 2053.86 1101.86 2049.79 1104.12 2045.59 1105.52 2044.61 1107.07 2044.33 1108.2 2043.48 1109.04 2038.44 1110.17 2036.9 1113.26 2034.51 1115.79 2033.25 1118.75 2034.23 1121.14 2036.48 1122.69 2039.42 1122.41 2042.36 1120.72 2045.31 1116.5 2049.79 1117.2 2051.33 1118.18 2055.4 1119.17 2057.5 1120.86 2058.62 1124.94 2060.02 1127.19 2064.09 1130.85 2063.53 1135.63 2061.71 1139.99 2060.72 1146.46 2061.85 1147.73 2062.27ZM1277.31 2049.79 1277.03 2052.46 1276.19 2055.4 1274.5 2057.08 1271.96 2055.96 1272.95 2059.04 1275.48 2064.37 1275.9 2067.87 1274.5 2068.43 1271.12 2067.31 1267.6 2065.49 1265.35 2063.81 1264.79 2067.17 1264.23 2068.85 1260.85 2072.64 1259.86 2075.72 1262.12 2077.4 1265.21 2078.81 1266.76 2080.49 1263.8 2083.15 1250.02 2087.36 1245.8 2087.64 1252.41 2083.01 1249.73 2081.75 1248.61 2079.65 1248.75 2076.84 1249.73 2073.48 1243.83 2076.56 1242.14 2075.3 1241.29 2072.64 1241.29 2069.98 1242.56 2068.71 1247.34 2067.73 1248.61 2065.21 1248.75 2061.57 1249.73 2057.5 1247.2 2055.96 1245.23 2058.34 1238.34 2061.43 1235.38 2063.81 1233.13 2060.44 1230.46 2057.5 1228.21 2054.14 1227.65 2049.79 1228.91 2047.13 1231.44 2044.61 1234.26 2042.78 1236.79 2041.66 1243.97 2040.26 1245.8 2040.26 1249.03 2041.66 1251.56 2043.2 1254.1 2044.47 1257.61 2044.75 1257.61 2043.34 1254.1 2040.96 1251.99 2037.46 1251.14 2033.53 1251 2029.89 1253.39 2030.17 1266.76 2022.6 1264.51 2018.4 1265.63 2014.05 1268.59 2011.81 1271.96 2013.07 1272.81 2015.03 1272.81 2017.27 1271.54 2025.82 1271.68 2027.23 1272.53 2029.89 1273.65 2032.13 1274.5 2034.37 1274.5 2037.46 1273.79 2040.12 1270.7 2048.11 1274.64 2046.71 1276.47 2045.45 1277.03 2045.87 1277.31 2049.79ZM1148.29 2055.26 1149.14 2055.96 1150.12 2057.5 1148.15 2058.06 1139.57 2055.68 1134.79 2057.22 1132.11 2056.94 1129.16 2055.26 1127.47 2051.89 1128.88 2048.39 1131.41 2045.03 1133.1 2041.8 1134.79 2039.56 1137.88 2038.72 1138.87 2041.38 1137.46 2045.03 1136.9 2047.55 1137.04 2049.79 1138.02 2050.49 1139.15 2047.97 1141.4 2044.33 1143.23 2044.05 1143.79 2045.73 1144.78 2046.57 1145.76 2047.13 1146.18 2049.93 1147.17 2053.72 1148.29 2055.26ZM1295.18 2014.33 1294.33 2019.1 1293.07 2020.78 1292.08 2021.2 1291.66 2020.22 1290.82 2016.15 1289.27 2014.61 1288.85 2013.35 1288.99 2011.81 1288.43 2009.85 1287.3 2008.02 1287.86 2006.34 1289.97 2005.22 1292.08 2004.94 1294.05 2005.5 1295.32 2008.44 1295.18 2014.33ZM1190.64 2102.77 1191.21 2103.33 1190.92 2104.59 1189.09 2106.84 1188.25 2107.4 1186.98 2107.54 1185.16 2107.12 1183.75 2107.4 1181.64 2108.38 1180.65 2109.36 1179.53 2109.5 1179.39 2108.66 1179.95 2107.26 1179.81 2106 1178.96 2105.16 1178.26 2105.02 1177.42 2104.45 1177.56 2103.19 1177.98 2102.21 1178.12 2100.95 1178.82 2100.25 1180.09 2099.83 1186.14 2103.05 1186.14 2104.45 1187.13 2104.59 1190.64 2102.77ZM1208.09 2061.15 1209.92 2060.3 1212.87 2059.6 1216.11 2059.46 1218.08 2061.29 1218.5 2064.23 1217.52 2066.05 1218.22 2067.17 1217.37 2068.57 1215.4 2067.73 1214.7 2068.29 1214.7 2068.85 1216.25 2069.13 1217.94 2070.4 1217.09 2071.8 1215.12 2074.18 1212.03 2074.32 1210.62 2072.5 1209.92 2070.68 1208.23 2070.68 1208.65 2069.13 1208.09 2067.59 1205.7 2067.31 1204.85 2066.61 1206.68 2065.07 1206.96 2063.39 1205.13 2061.85 1201.62 2060.72 1199.51 2061.43 1198.24 2061.29 1197.82 2059.74 1199.37 2058.06 1201.62 2057.5 1204.57 2058.76 1206.82 2060.44 1208.09 2061.15ZM1180.23 2057.36 1183.04 2060.58 1184.17 2062.41 1183.33 2063.67 1181.36 2063.67 1180.37 2064.09 1180.51 2065.77 1179.95 2066.47 1178.12 2065.91 1177 2065.35 1174.88 2063.95 1173.76 2062.13 1173.9 2060.86 1175.31 2058.76 1177.84 2056.8 1180.23 2057.36Z" stroke="#FFFFFF" stroke-width="0.701214" stroke-linecap="round" stroke-linejoin="round" stroke-miterlimit="10" stroke-opacity="1" fill="#9C3702" fill-rule="evenodd" fill-opacity="1"/><path d="M1317.86 1988.61 1319.39 1985.8 1322.31 1982.16 1324.96 1978.09 1326.9 1964.35 1329.68 1960.99 1333.16 1958.32 1337.61 1956.5 1342.48 1956.64 1346.09 1959.02 1347.2 1964.21 1350.54 1968.84 1354.85 1972.48 1358.33 1976.83 1362.08 1980.76 1362.5 1981.6 1361.53 1983.56 1358.61 1983.42 1356.52 1983.42 1353.74 1983.84 1351.79 1983.7 1349.85 1984.54 1347.48 1984.82 1347.34 1988.19 1348.87 1990.43 1349.15 1993.1 1348.18 1996.18 1343.87 1998.14 1340.53 1995.2 1338.44 1993.52 1336.91 1991.55 1331.91 1996.88 1329.68 2001.23 1328.99 2005.71 1327.46 2006.84 1326.62 2004.45 1324.26 2002.07 1324.54 2004.17 1324.96 2008.94 1323.57 2008.94 1322.87 2007.4 1322.04 2006.98 1320.09 2008.38 1318.28 2009.5 1317.03 2007.96 1315.5 2002.63 1316.2 1998 1317.59 1991.97 1317.86 1988.61Z" stroke="#FFFFFF" stroke-width="0.701214" stroke-linecap="round" stroke-linejoin="round" stroke-miterlimit="10" stroke-opacity="1" fill="#9C3702" fill-rule="evenodd" fill-opacity="1"/><path d="M1375.84 1945.5 1375 1944.8 1369.68 1942.86 1365.48 1938.82 1364.22 1932.42 1359.88 1929.08 1350.08 1923.66 1341.96 1914.34 1337.06 1910.58 1325.3 1908.77 1322.5 1903.07 1327.26 1893.61 1326.42 1884.43 1331.04 1880.67 1335.8 1877.89 1338.74 1877.75 1340 1875.52 1338.18 1872.46 1337.06 1869.26 1343.5 1864.4 1351.48 1861.61 1358.06 1860.5 1364.5 1861.89 1371.22 1864.81 1373.04 1867.59 1373.04 1871.07 1373.6 1874.13 1375.84 1875.8 1379.06 1876.64 1396.7 1873.58 1411.82 1877.19 1411.96 1877.19 1412.24 1877.47 1413.5 1879.7 1412.8 1884.71 1412.38 1890.69 1411.12 1899.73 1409.16 1903.49 1406.08 1907.8 1403.14 1909.33 1401.88 1905.16 1400.76 1899.87 1398.38 1895.84 1395.72 1895.28 1394.18 1899.73 1396.7 1900.29 1398.24 1902.23 1399.08 1905.16 1399.22 1908.5 1398.38 1911.56 1396.42 1912.25 1394.18 1912.53 1392.64 1913.92 1392.92 1915.59 1393.2 1919.9 1394.04 1924.35 1392.22 1927.28 1390.68 1930.06 1392.22 1932.28 1393.48 1933.54 1393.2 1936.74 1389.28 1937.99 1385.64 1940.21 1380.32 1945.36 1375.84 1945.22 1375.84 1945.5Z" stroke="#FFFFFF" stroke-width="0.701214" stroke-linecap="round" stroke-linejoin="round" stroke-miterlimit="10" stroke-opacity="1" fill="#9C3702" fill-rule="evenodd" fill-opacity="1"/><path d="M1258.45 1543.57 1263.36 1546.23 1268.13 1548.2 1273.75 1549.46 1278.66 1549.88 1279.79 1544.83 1280.35 1539.36 1279.08 1533.47 1282.59 1529.27 1287.79 1526.74 1292.98 1527.16 1295.65 1531.93 1299.3 1532.77 1302.52 1534.46 1302.1 1538.52 1302.52 1542.73 1308.28 1540.48 1313.61 1536.28 1316 1537.26 1317.54 1539.36 1319.65 1539.64 1322.18 1538.66 1329.62 1539.92 1336.63 1543.15 1341.69 1541.89 1346.74 1539.08 1353.34 1540.62 1359.23 1544.27 1361.06 1549.74 1356.57 1553.1 1351.09 1550.86 1347.44 1552.26 1344.21 1554.65 1342.81 1560.53 1343.65 1568.25 1347.58 1574.14 1353.9 1577.22 1355.3 1582.27 1357.13 1586.61 1361.48 1588.44 1365.55 1590.82 1379.45 1591.8 1378.74 1597.27 1380.29 1598.81 1381.83 1600.49 1379.87 1606.52 1377.2 1612.83 1377.76 1619.42 1379.45 1625.31 1380.01 1630.64 1377.9 1636.25 1391.1 1641.16 1397.27 1638.35 1403.59 1639.89 1405.41 1639.89 1405.55 1640.31 1406.54 1649.71 1409.06 1659.38 1410.19 1669.2 1408.92 1689.25 1407.8 1693.6 1401.9 1700.75 1399.66 1704.81 1398.68 1709.44 1397.83 1737.9 1398.4 1741.83 1399.66 1743.93 1400.92 1744.77 1401.9 1746.03 1403.03 1754.03 1404.43 1760.06 1405.98 1761.18 1406.96 1762.58 1406.26 1766.22 1404.71 1768.33 1402.75 1769.17 1400.92 1769.87 1397.69 1772.39 1397.55 1775.62 1401.48 1779.4 1404.43 1782.63 1407.52 1786.28 1411.31 1786.98 1416.22 1783.19 1428.29 1769.87 1430.68 1766.08 1433.77 1768.47 1434.47 1772.53 1435.87 1776.74 1436.86 1781.51 1433.77 1786.14 1427.03 1799.74 1426.47 1805.9 1424.36 1821.89 1419.45 1835.91 1419.73 1844.6 1414.68 1859.75 1411.03 1867.04 1409.34 1870.68 1410.89 1874.89 1412.43 1876.71 1412.29 1876.71 1397.13 1873.07 1379.45 1876.15 1376.22 1875.31 1373.97 1873.63 1373.41 1870.54 1373.41 1867.04 1371.59 1864.23 1364.85 1861.29 1358.39 1859.89 1351.79 1861.01 1343.79 1863.81 1337.34 1868.72 1338.46 1871.94 1340.28 1875.03 1339.02 1877.27 1336.07 1877.41 1331.3 1880.22 1326.67 1884 1321.33 1885.69 1315.72 1883.16 1308.42 1881.34 1301.54 1884.14 1299.3 1886.95 1296.77 1889.19 1293.96 1889.61 1291.3 1890.59 1284.98 1895.5 1277.96 1895.22 1272.06 1892.13 1265.75 1890.31 1258.73 1891.57 1251.71 1892.28 1245.82 1888.49 1241.04 1882.6 1239.5 1869.7 1235.01 1873.07 1230.38 1879.8 1225.18 1878.81 1214.94 1884 1209.6 1882.88 1204.69 1879.24 1199.49 1876.85 1194.02 1875.87 1188.27 1876.71 1176.47 1876.15 1173.53 1865.35 1175.77 1860.17 1175.91 1854.56 1173.39 1851.61 1170.44 1849.79 1169.88 1847.83 1168.75 1845.58 1164.54 1842.64 1162.02 1837.73 1158.37 1833.81 1153.45 1832.12 1148.12 1832.26 1142.65 1831.84 1139.56 1829.74 1137.03 1827.64 1131.28 1827.22 1129.73 1826.66 1128.19 1825.96 1127.49 1824.13 1127.21 1822.17 1125.52 1820.77 1123.7 1819.37 1119.91 1817.12 1118.36 1811.93 1119.2 1796.93 1111.48 1783.75 1116.12 1781.37 1120.89 1779.83 1123.84 1774.08 1125.38 1768.05 1126.92 1765.38 1128.75 1763.14 1129.17 1759.35 1129.03 1756.13 1128.05 1749.82 1132.68 1745.75 1137.17 1746.6 1141.24 1746.88 1139 1734.68 1134.79 1731.45 1125.1 1733.84 1121.31 1732.01 1115.98 1727.53 1111.34 1725.98 1103.76 1727.81 1102.5 1716.59 1106.71 1712.94 1109.52 1707.62 1107.41 1703.83 1106.15 1699.76 1107.27 1694.02 1108.12 1681.26 1109.94 1675.79 1113.45 1672.42 1104.19 1658.82 1096.75 1657.56 1094.5 1652.23 1097.31 1650.97 1100.11 1650.41 1102.92 1647.47 1107.13 1641.72 1108.26 1639.33 1108.12 1637.09 1108.68 1634.29 1114.57 1630.22 1121.17 1627.14 1125.38 1620.97 1132.54 1624.05 1146.01 1626.15 1143.35 1620.83 1139.7 1616.2 1140.96 1611.29 1143.35 1606.1 1145.59 1602.18 1148.68 1604.28 1152.47 1603.86 1155.56 1599.65 1158.79 1597.69 1161.88 1599.65 1167.77 1601.62 1173.25 1602.04 1174.65 1598.25 1175.49 1594.47 1177.6 1591.38 1179.98 1588.86 1182.51 1591.66 1185.6 1593.9 1190.09 1597.83 1193.04 1603.58 1199.78 1605.82 1215.64 1599.09 1218.44 1589.84 1215.92 1587.46 1214.65 1585.07 1217.04 1580.73 1219.01 1576.24 1223.22 1570.21 1229.11 1566 1230.8 1563.06 1233.18 1561.1 1237.11 1559.83 1240.2 1556.75 1245.11 1552.68 1249.47 1548.06 1251.29 1546.93 1253.54 1547.78 1256.2 1546.23 1258.45 1543.57ZM1275.85 1820.91 1278.8 1817.82 1279.79 1814.18 1279.64 1810.11 1279.36 1806.47 1277.26 1804.64 1275.71 1802.4 1275.71 1796.51 1276.56 1794.83 1276.7 1793.01 1274.31 1788.8 1266.59 1783.19 1256.62 1783.89 1244.55 1785.57 1235.57 1793.01 1236.69 1803.66 1233.46 1807.17 1231.36 1811.79 1233.18 1812.07 1234.87 1812.78 1234.59 1815.16 1233.74 1817.26 1230.66 1817.82 1227.85 1817.82 1225.18 1821.47 1226.31 1825.82 1229.25 1826.94 1232.06 1829.74 1234.31 1834.09 1237.67 1836.75 1240.06 1838.29 1241.75 1839.84 1243.29 1838.57 1245.96 1833.81 1248.62 1831.7 1254.8 1832.26 1265.75 1835.07 1270.1 1832.55 1270.66 1830.3 1270.66 1828.9 1272.49 1824.13 1272.63 1822.17 1272.63 1820.63 1274.45 1820.49 1275.85 1820.91ZM1687.27 1418.5 1690.5 1421.02 1690.36 1427.05 1688.25 1433.92 1686.01 1438.41 1682.36 1440.23 1677.59 1439.25 1672.81 1436.45 1669.73 1432.66 1668.74 1427.75 1670.29 1424.11 1673.8 1421.87 1680.53 1420.74 1685.03 1419.06 1687.27 1418.5Z" stroke="#F8DDE1" stroke-width="0.701214" stroke-linecap="round" stroke-linejoin="round" stroke-miterlimit="10" stroke-opacity="1" fill="#9C3702" fill-rule="evenodd" fill-opacity="1"/><path d="M934.094 2369.92 935.5 2372.86 934.657 2373.97 932.829 2374.53 931.423 2376.07 931.563 2377.33 932.829 2379.42 932.829 2380.68 932.126 2381.94 930.439 2384.04 930.158 2384.73 926.783 2388.65 920.175 2393.82 918.207 2398.15 915.395 2403.04 915.254 2405.13 913.989 2408.07 909.209 2408.63 907.381 2409.61 902.46 2409.05 895.149 2414.92 875.887 2418.41 869.42 2423.86 861.547 2425.54 853.111 2424.7 843.41 2426.51 835.396 2424.14 817.259 2424.42 811.635 2426.93 808.261 2432.94 805.168 2433.5 802.074 2432.1 797.857 2425.12 791.952 2423.16 786.468 2417.29 784.5 2410.17 787.874 2400.94 791.108 2395.21 793.076 2393.26 799.684 2389.35 805.308 2379.56 810.51 2378.17 812.9 2373 821.898 2369.92 841.301 2364.47 846.222 2360.28 864.78 2358.32 877.434 2352.88 880.386 2353.71 895.852 2351.2 904.71 2350.5 910.614 2351.48 913.005 2354.83 915.817 2357.07 924.955 2360.7 927.767 2363.5 929.595 2370.34 931.423 2373 932.407 2371.88 933.532 2370.9 934.094 2369.92Z" stroke="#FFFFFF" stroke-width="0.701214" stroke-linecap="round" stroke-linejoin="round" stroke-miterlimit="10" stroke-opacity="1" fill="#BF8800" fill-rule="evenodd" fill-opacity="1"/><path d="M966.552 1417.26 971.721 1417.26 976.191 1415.58 980.103 1415.58 981.5 1419.08 980.941 1422.58 978.287 1423.97 975.493 1425.93 975.493 1430.13 977.03 1431.95 973.816 1436.29 972 1439.51 967.11 1442.44 961.662 1443.7 956.074 1446.5 953.978 1441.46 949.228 1442.58 944.478 1443.98 941.125 1445.94 937.772 1446.5 929.669 1446.22 924.081 1438.95 918.492 1437.27 914.721 1434.75 913.743 1427.89 909.971 1422.58 905.5 1416.98 908.434 1410.96 913.743 1411.24 919.75 1415.02 924.221 1413.48 928.272 1410.96 928.551 1406.91 929.669 1403.13 938.191 1402.29 942.522 1396.69 945.176 1390.96 948.948 1386.9 954.956 1385.5 961.662 1386.06 965.015 1391.66 966.272 1399.35 968.228 1404.67 968.368 1410.54 966.552 1417.26Z" stroke="#FFFFFF" stroke-width="0.701214" stroke-linecap="round" stroke-linejoin="round" stroke-miterlimit="10" stroke-opacity="1" fill="#D04A02" fill-rule="evenodd" fill-opacity="1"/><path d="M1036.5 1697.46 1035.52 1702.89 1033 1706.94 1030.34 1717.12 1025.3 1721.02 1022.63 1722 1014.37 1728.13 1004.99 1730.5 1001.07 1717.81 1000.09 1700.8 996.584 1694.11 986.5 1678.22 995.183 1675.85 1007.51 1672.5 1011.85 1672.92 1011.43 1674.59 1012.13 1676.4 1013.39 1677.8 1015.07 1678.63 1016.19 1681.28 1015.49 1685.33 1021.23 1687 1027.26 1685.61 1029.5 1682.4 1032.16 1683.1 1031.88 1685.75 1034.12 1687 1034.54 1691.18 1036.5 1697.46Z" stroke="#FFFFFF" stroke-width="0.701214" stroke-linecap="round" stroke-linejoin="round" stroke-miterlimit="10" stroke-opacity="1" fill="#FEB188" fill-rule="evenodd" fill-opacity="1"/><path d="M986.131 1678.01 972.943 1681.5 955.5 1678.15 957.202 1673.25 960.18 1670.46 959.612 1634.66 964.009 1622.5 991.378 1633.27 987.691 1641.23 987.974 1645.29 985.564 1652 984.713 1659.27 998.894 1656.47 1013.5 1657.45 1013.36 1659.97 1012.37 1662.21 1011.94 1664.02 1012.65 1665.42 1012.79 1666.68 1012.93 1667.94 1012.65 1670.32 1011.8 1672.69 1007.4 1672.27 994.923 1675.63 986.131 1678.01Z" stroke="#FFFFFF" stroke-width="0.701214" stroke-linecap="round" stroke-linejoin="round" stroke-miterlimit="10" stroke-opacity="1" fill="#FEB188" fill-rule="evenodd" fill-opacity="1"/><path d="M1059.81 1517.3 1079.91 1511.82 1100.14 1509.01 1098.6 1520.53 1104.36 1519.13 1110.12 1519.55 1111.8 1520.53 1113.35 1521.38 1114.9 1520.11 1116.16 1518.57 1120.09 1515.89 1118.97 1504.23 1122.62 1499.87 1132.32 1496.5 1139.49 1504.23 1139.49 1509.29 1141.87 1512.66 1148.2 1511.12 1154.52 1507.6 1158.31 1504.65 1162.95 1505.64 1166.6 1503.67 1171.1 1500.29 1181.64 1504.09 1192.6 1505.78 1195.97 1506.76 1193.72 1511.82 1188.24 1515.75 1185.01 1520.81 1187.12 1523.2 1189.79 1524.61 1191.48 1524.75 1193.3 1523.91 1199.06 1521.94 1208.06 1520.95 1210.02 1522.92 1209.6 1526.44 1213.4 1530.37 1214.8 1533.46 1218.31 1533.18 1222.39 1532.48 1227.03 1531.07 1231.52 1530.93 1236.02 1534.45 1241.08 1537.68 1245.99 1538.66 1250.91 1539.22 1254.71 1540.91 1258.5 1543.3 1256.25 1545.97 1253.58 1547.52 1251.33 1546.67 1249.51 1547.8 1245.15 1552.44 1240.23 1556.51 1237.14 1559.6 1233.21 1560.87 1230.82 1562.84 1229.13 1565.79 1223.23 1570 1219.02 1576.05 1217.05 1580.54 1214.66 1584.9 1215.92 1587.29 1218.45 1589.68 1215.64 1598.96 1199.77 1605.7 1193.02 1603.45 1190.07 1597.69 1185.57 1593.76 1182.48 1591.51 1179.95 1588.7 1177.56 1591.23 1175.46 1594.32 1174.61 1598.11 1173.21 1601.91 1167.73 1601.49 1161.83 1599.52 1158.74 1597.55 1155.5 1599.52 1152.41 1603.73 1148.62 1604.16 1145.53 1602.05 1143.28 1605.98 1140.89 1611.18 1139.63 1616.1 1143.28 1620.74 1145.95 1626.08 1132.46 1623.97 1125.29 1620.88 1121.08 1627.06 1114.47 1630.16 1108.57 1634.23 1108.01 1637.04 1108.15 1639.29 1107.03 1641.68 1102.81 1647.44 1100 1650.39 1097.19 1650.96 1094.38 1652.22 1096.63 1657.56 1104.08 1658.83 1113.35 1672.46 1109.84 1675.83 1108.01 1681.31 1107.17 1694.1 1106.04 1699.87 1107.31 1703.94 1109.42 1707.74 1106.61 1713.08 1102.39 1716.73 1103.65 1727.97 1111.24 1726.15 1115.88 1727.69 1121.22 1732.19 1125.01 1734.02 1134.71 1731.63 1138.92 1734.86 1141.17 1747.09 1137.1 1746.81 1132.6 1745.96 1127.96 1750.04 1128.95 1756.36 1129.09 1759.6 1128.67 1763.39 1126.84 1765.64 1125.29 1768.31 1123.75 1774.35 1120.8 1780.12 1116.02 1781.66 1111.38 1784.05 1108.85 1786.58 1106.47 1788.83 1103.65 1787.28 1100.84 1784.61 1093.82 1787.85 1087.78 1791.5 1084.69 1790.66 1082.86 1788.41 1074.43 1785.6 1071.48 1782.22 1068.25 1780.4 1067.12 1782.08 1065.58 1782.37 1063.75 1780.68 1062.06 1778.71 1057.71 1771.97 1053.91 1765.08 1052.23 1757.07 1052.51 1748.92 1050.54 1741.89 1044.64 1738.23 1039.02 1736.41 1032.84 1737.67 1032.41 1730.93 1032.7 1724.46 1034.94 1715.33 1039.3 1707.6 1040.99 1703.52 1042.95 1700.01 1046.04 1697.76 1046.89 1693.54 1044.36 1692.84 1041.69 1691.57 1038.6 1693.96 1036.07 1697.34 1034.1 1691.01 1033.68 1686.8 1031.43 1685.53 1031.71 1682.86 1029.04 1682.16 1026.79 1685.39 1020.75 1686.8 1014.99 1685.11 1015.69 1681.03 1014.57 1678.36 1012.88 1677.52 1011.62 1676.11 1010.92 1674.29 1011.34 1672.6 1012.18 1670.21 1012.46 1667.82 1012.32 1666.56 1012.18 1665.29 1011.48 1663.89 1011.9 1662.06 1012.88 1659.81 1013.02 1657.28 998.551 1656.3 984.5 1659.11 985.343 1651.8 987.732 1645.05 987.451 1640.98 991.104 1632.97 996.444 1625.24 1000.38 1618.35 1002.06 1616.52 1003.89 1616.81 1005.58 1616.38 1006.56 1614.56 1006.84 1612.45 1007.4 1609.92 1008.39 1607.39 1008.81 1604.72 1008.39 1602.05 1007.12 1599.66 1005.58 1598.11 1005.72 1593.33 1003.19 1591.51 999.956 1584.9 997.427 1583.5 995.179 1581.11 993.633 1577.59 1002.2 1575.06 1010.35 1571.13 1016.68 1569.02 1018.36 1561.99 1021.45 1558.62 1026.37 1556.51 1028.62 1553.56 1030.31 1549.48 1033.26 1546.39 1036.91 1547.24 1038.04 1548.64 1042.81 1545.27 1051.95 1528.26 1052.79 1526.3 1053.91 1524.47 1055.46 1523.2 1056.86 1522.22 1058.41 1519.83 1059.81 1517.3Z" stroke="#FFFFFF" stroke-width="0.701214" stroke-linecap="round" stroke-linejoin="round" stroke-miterlimit="10" stroke-opacity="1" fill="#FEB188" fill-rule="evenodd" fill-opacity="1"/><path d="M941.549 1964.09 945.5 1974.57 937.879 1984.5 926.166 1982.57 915.722 1976.5 910.5 1965.19 914.593 1961.47 921.508 1963.12 926.448 1962.02 931.669 1960.5 941.549 1964.09Z" stroke="#FFFFFF" stroke-width="0.701214" stroke-linecap="round" stroke-linejoin="round" stroke-miterlimit="10" stroke-opacity="1" fill="#FD8A4D" fill-rule="evenodd" fill-opacity="1"/><path d="M1275.61 1821.45 1274.22 1821.03 1272.42 1821.17 1272.42 1822.72 1272.28 1824.7 1270.48 1829.5 1270.48 1830.91 1269.92 1833.16 1265.62 1835.7 1254.79 1832.88 1248.68 1832.32 1246.05 1834.43 1243.41 1839.23 1241.88 1840.5 1240.21 1838.95 1237.85 1837.4 1234.52 1834.72 1232.3 1830.34 1229.53 1827.52 1226.61 1826.39 1225.5 1822.02 1228.14 1818.35 1230.91 1818.35 1233.97 1817.78 1234.8 1815.67 1235.08 1813.27 1233.41 1812.56 1231.61 1812.28 1233.69 1807.63 1236.88 1804.1 1235.77 1793.38 1244.66 1785.9 1256.6 1784.21 1266.45 1783.5 1274.09 1789.14 1276.45 1793.38 1276.31 1795.21 1275.47 1796.9 1275.47 1802.83 1277 1805.09 1279.08 1806.92 1279.36 1810.59 1279.5 1814.68 1278.53 1818.35 1275.61 1821.45Z" stroke="#FFFFFF" stroke-width="0.701214" stroke-linecap="round" stroke-linejoin="round" stroke-miterlimit="10" stroke-opacity="1" fill="#9C3702" fill-rule="evenodd" fill-opacity="1"/><path d="M1473.5 1249C1473.5 1249.83 1472.83 1250.5 1472 1250.5 1471.17 1250.5 1470.5 1249.83 1470.5 1249 1470.5 1248.17 1471.17 1247.5 1472 1247.5 1472.83 1247.5 1473.5 1248.17 1473.5 1249Z" stroke="#FFFFFF" stroke-width="0.701214" stroke-linecap="round" stroke-linejoin="round" stroke-miterlimit="10" stroke-opacity="1" fill="#6F9C76" fill-rule="evenodd" fill-opacity="1"/><path d="M1306.5 1355C1306.5 1355.83 1306.05 1356.5 1305.5 1356.5 1304.95 1356.5 1304.5 1355.83 1304.5 1355 1304.5 1354.17 1304.95 1353.5 1305.5 1353.5 1306.05 1353.5 1306.5 1354.17 1306.5 1355Z" stroke="#FFFFFF" stroke-width="0.701214" stroke-linecap="round" stroke-linejoin="round" stroke-miterlimit="10" stroke-opacity="1" fill="#6F9C76" fill-rule="evenodd" fill-opacity="1"/><path d="M1207.5 1540C1207.5 1540.83 1206.83 1541.5 1206 1541.5 1205.17 1541.5 1204.5 1540.83 1204.5 1540 1204.5 1539.17 1205.17 1538.5 1206 1538.5 1206.83 1538.5 1207.5 1539.17 1207.5 1540Z" stroke="#FFFFFF" stroke-width="0.701214" stroke-linecap="round" stroke-linejoin="round" stroke-miterlimit="10" stroke-opacity="1" fill="#6F9C76" fill-rule="evenodd" fill-opacity="1"/><path d="M1176.5 1321.5C1176.5 1322.05 1175.83 1322.5 1175 1322.5 1174.17 1322.5 1173.5 1322.05 1173.5 1321.5 1173.5 1320.95 1174.17 1320.5 1175 1320.5 1175.83 1320.5 1176.5 1320.95 1176.5 1321.5Z" stroke="#FFFFFF" stroke-width="0.701214" stroke-linecap="round" stroke-linejoin="round" stroke-miterlimit="10" stroke-opacity="1" fill="#6F9C76" fill-rule="evenodd" fill-opacity="1"/><path d="M1265.5 1728C1265.5 1728.83 1264.83 1729.5 1264 1729.5 1263.17 1729.5 1262.5 1728.83 1262.5 1728 1262.5 1727.17 1263.17 1726.5 1264 1726.5 1264.83 1726.5 1265.5 1727.17 1265.5 1728Z" stroke="#FFFFFF" stroke-width="0.701214" stroke-linecap="round" stroke-linejoin="round" stroke-miterlimit="10" stroke-opacity="1" fill="#6F9C76" fill-rule="evenodd" fill-opacity="1"/><path d="M1219.5 1929C1219.5 1929.83 1218.83 1930.5 1218 1930.5 1217.17 1930.5 1216.5 1929.83 1216.5 1929 1216.5 1928.17 1217.17 1927.5 1218 1927.5 1218.83 1927.5 1219.5 1928.17 1219.5 1929Z" stroke="#FFFFFF" stroke-width="0.701214" stroke-linecap="round" stroke-linejoin="round" stroke-miterlimit="10" stroke-opacity="1" fill="#6F9C76" fill-rule="evenodd" fill-opacity="1"/><path d="M1477.5 1823C1477.5 1823.83 1476.83 1824.5 1476 1824.5 1475.17 1824.5 1474.5 1823.83 1474.5 1823 1474.5 1822.17 1475.17 1821.5 1476 1821.5 1476.83 1821.5 1477.5 1822.17 1477.5 1823Z" stroke="#FFFFFF" stroke-width="0.701214" stroke-linecap="round" stroke-linejoin="round" stroke-miterlimit="10" stroke-opacity="1" fill="#6F9C76" fill-rule="evenodd" fill-opacity="1"/><path d="M1627.5 1857C1627.5 1857.83 1626.83 1858.5 1626 1858.5 1625.17 1858.5 1624.5 1857.83 1624.5 1857 1624.5 1856.17 1625.17 1855.5 1626 1855.5 1626.83 1855.5 1627.5 1856.17 1627.5 1857Z" stroke="#FFFFFF" stroke-width="0.701214" stroke-linecap="round" stroke-linejoin="round" stroke-miterlimit="10" stroke-opacity="1" fill="#6F9C76" fill-rule="evenodd" fill-opacity="1"/><path d="M1658.5 1784C1658.5 1784.83 1657.83 1785.5 1657 1785.5 1656.17 1785.5 1655.5 1784.83 1655.5 1784 1655.5 1783.17 1656.17 1782.5 1657 1782.5 1657.83 1782.5 1658.5 1783.17 1658.5 1784Z" stroke="#FFFFFF" stroke-width="0.701214" stroke-linecap="round" stroke-linejoin="round" stroke-miterlimit="10" stroke-opacity="1" fill="#6F9C76" fill-rule="evenodd" fill-opacity="1"/><path d="M1574.5 1555.5C1574.5 1556.05 1574.05 1556.5 1573.5 1556.5 1572.95 1556.5 1572.5 1556.05 1572.5 1555.5 1572.5 1554.95 1572.95 1554.5 1573.5 1554.5 1574.05 1554.5 1574.5 1554.95 1574.5 1555.5Z" stroke="#FFFFFF" stroke-width="0.701214" stroke-linecap="round" stroke-linejoin="round" stroke-miterlimit="10" stroke-opacity="1" fill="#6F9C76" fill-rule="evenodd" fill-opacity="1"/><path d="M1148.5 2273C1148.5 2273.83 1147.83 2274.5 1147 2274.5 1146.17 2274.5 1145.5 2273.83 1145.5 2273 1145.5 2272.17 1146.17 2271.5 1147 2271.5 1147.83 2271.5 1148.5 2272.17 1148.5 2273Z" stroke="#FFFFFF" stroke-width="0.701214" stroke-linecap="round" stroke-linejoin="round" stroke-miterlimit="10" stroke-opacity="1" fill="#6F9C76" fill-rule="evenodd" fill-opacity="1"/><path d="M1236.5 1302C1236.5 1302.83 1235.83 1303.5 1235 1303.5 1234.17 1303.5 1233.5 1302.83 1233.5 1302 1233.5 1301.17 1234.17 1300.5 1235 1300.5 1235.83 1300.5 1236.5 1301.17 1236.5 1302Z" stroke="#FFFFFF" stroke-width="0.701214" stroke-linecap="round" stroke-linejoin="round" stroke-miterlimit="10" stroke-opacity="1" fill="#6F9C76" fill-rule="evenodd" fill-opacity="1"/><path d="M1305.5 1586C1305.5 1586.83 1304.83 1587.5 1304 1587.5 1303.17 1587.5 1302.5 1586.83 1302.5 1586 1302.5 1585.17 1303.17 1584.5 1304 1584.5 1304.83 1584.5 1305.5 1585.17 1305.5 1586Z" stroke="#FFFFFF" stroke-width="0.701214" stroke-linecap="round" stroke-linejoin="round" stroke-miterlimit="10" stroke-opacity="1" fill="#6F9C76" fill-rule="evenodd" fill-opacity="1"/><path d="M1262.5 1536.5C1262.5 1537.05 1261.83 1537.5 1261 1537.5 1260.17 1537.5 1259.5 1537.05 1259.5 1536.5 1259.5 1535.95 1260.17 1535.5 1261 1535.5 1261.83 1535.5 1262.5 1535.95 1262.5 1536.5Z" stroke="#FFFFFF" stroke-width="0.701214" stroke-linecap="round" stroke-linejoin="round" stroke-miterlimit="10" stroke-opacity="1" fill="#6F9C76" fill-rule="evenodd" fill-opacity="1"/><path d="M1353.5 1484C1353.5 1484.83 1353.05 1485.5 1352.5 1485.5 1351.95 1485.5 1351.5 1484.83 1351.5 1484 1351.5 1483.17 1351.95 1482.5 1352.5 1482.5 1353.05 1482.5 1353.5 1483.17 1353.5 1484Z" stroke="#FFFFFF" stroke-width="0.701214" stroke-linecap="round" stroke-linejoin="round" stroke-miterlimit="10" stroke-opacity="1" fill="#6F9C76" fill-rule="evenodd" fill-opacity="1"/><path d="M1219.5 1853C1219.5 1853.83 1218.83 1854.5 1218 1854.5 1217.17 1854.5 1216.5 1853.83 1216.5 1853 1216.5 1852.17 1217.17 1851.5 1218 1851.5 1218.83 1851.5 1219.5 1852.17 1219.5 1853Z" stroke="#FFFFFF" stroke-width="0.701214" stroke-linecap="round" stroke-linejoin="round" stroke-miterlimit="10" stroke-opacity="1" fill="#6F9C76" fill-rule="evenodd" fill-opacity="1"/><path d="M1544.5 1690C1544.5 1690.83 1543.83 1691.5 1543 1691.5 1542.17 1691.5 1541.5 1690.83 1541.5 1690 1541.5 1689.17 1542.17 1688.5 1543 1688.5 1543.83 1688.5 1544.5 1689.17 1544.5 1690Z" stroke="#FFFFFF" stroke-width="0.701214" stroke-linecap="round" stroke-linejoin="round" stroke-miterlimit="10" stroke-opacity="1" fill="#6F9C76" fill-rule="evenodd" fill-opacity="1"/><text fill="#D04A02" fill-opacity="1" font-family="Malgun Gothic,Malgun Gothic_MSFontService,sans-serif" font-style="normal" font-variant="normal" font-weight="700" font-stretch="normal" font-size="50" text-anchor="start" direction="ltr" writing-mode="lr-tb" unicode-bidi="normal" text-decoration="none" transform="matrix(1 0 0 1 618.118 1257)"></text><text fill="#D04A02" fill-opacity="1" font-family="Malgun Gothic,Malgun Gothic_MSFontService,sans-serif" font-style="normal" font-variant="normal" font-weight="700" font-stretch="normal" font-size="50" text-anchor="start" direction="ltr" writing-mode="lr-tb" unicode-bidi="normal" text-decoration="none" transform="matrix(1 0 0 1 1281.53 1257)"></text><text fill="#D04A02" fill-opacity="1" font-family="Malgun Gothic,Malgun Gothic_MSFontService,sans-serif" font-style="normal" font-variant="normal" font-weight="700" font-stretch="normal" font-size="50" text-anchor="start" direction="ltr" writing-mode="lr-tb" unicode-bidi="normal" text-decoration="none" transform="matrix(1 0 0 1 1552.38 1774)"></text><text fill="#D04A02" fill-opacity="1" font-family="Malgun Gothic,Malgun Gothic_MSFontService,sans-serif" font-style="normal" font-variant="normal" font-weight="700" font-stretch="normal" font-size="50" text-anchor="start" direction="ltr" writing-mode="lr-tb" unicode-bidi="normal" text-decoration="none" transform="matrix(1 0 0 1 591.5 1702)"></text><text fill="#D04A02" fill-opacity="1" font-family="Malgun Gothic,Malgun Gothic_MSFontService,sans-serif" font-style="normal" font-variant="normal" font-weight="700" font-stretch="normal" font-size="50" text-anchor="start" direction="ltr" writing-mode="lr-tb" unicode-bidi="normal" text-decoration="none" transform="matrix(1 0 0 1 592.253 1979)"></text><text fill="#D04A02" fill-opacity="1" font-family="Malgun Gothic,Malgun Gothic_MSFontService,sans-serif" font-style="normal" font-variant="normal" font-weight="700" font-stretch="normal" font-size="50" text-anchor="start" direction="ltr" writing-mode="lr-tb" unicode-bidi="normal" text-decoration="none" transform="matrix(1 0 0 1 1068.31 2321)"></text><path d="M784.5 1259.5 975.77 1415.69" stroke="#DC6900" stroke-width="4.58333" stroke-linecap="square" stroke-linejoin="round" stroke-miterlimit="10" stroke-dasharray="13.75 4.58333" stroke-opacity="1" fill="none" fill-rule="evenodd"/><path d="M0 0 112.716 109.539" stroke="#DC6900" stroke-width="4.58333" stroke-linecap="square" stroke-linejoin="round" stroke-miterlimit="10" stroke-dasharray="13.75 4.58333" stroke-opacity="1" fill="none" fill-rule="evenodd" transform="matrix(-1 0 0 1 1302.22 1282.5)"/><path d="M0 0 229.475 15.6053" stroke="#DC6900" stroke-width="4.58333" stroke-linecap="square" stroke-linejoin="round" stroke-miterlimit="10" stroke-dasharray="13.75 4.58333" stroke-opacity="1" fill="none" fill-rule="evenodd" transform="matrix(1 0 0 -1 726.5 1694.11)"/><path d="M0 0 230.738 30.5073" stroke="#DC6900" stroke-width="4.58333" stroke-linecap="square" stroke-linejoin="round" stroke-miterlimit="10" stroke-dasharray="13.75 4.58333" stroke-opacity="1" fill="none" fill-rule="evenodd" transform="matrix(1 0 0 -1 726.5 1950.01)"/><path d="M0 0 246.834 42.5499" stroke="#DC6900" stroke-width="4.58333" stroke-linecap="square" stroke-linejoin="round" stroke-miterlimit="10" stroke-dasharray="13.75 4.58333" stroke-opacity="1" fill="none" fill-rule="evenodd" transform="matrix(-1 0 0 1 1524.33 1762.5)"/><path d="M0 0 160.117 96.4424" stroke="#DC6900" stroke-width="4.58333" stroke-linecap="square" stroke-linejoin="round" stroke-miterlimit="10" stroke-dasharray="13.75 4.58333" stroke-opacity="1" fill="none" fill-rule="evenodd" transform="matrix(1 0 0 -1 876.5 2417.94)"/></g></g></svg>